<svg width="1254" height="367" viewBox="0 0 1254 367" fill="none" xmlns="http://www.w3.org/2000/svg">
<g opacity="0.4">
<g opacity="0.8" filter="url(#filter0_f_1_501)">
<ellipse cx="239.472" cy="248.432" rx="239.472" ry="248.432" transform="matrix(-1 0 0 1 1617.94 150)" fill="#D5AEE4"/>
</g>
</g>
<g filter="url(#filter1_d_1_501)">
<path fill-rule="evenodd" clip-rule="evenodd" d="M1004.5 77C1015.82 77 1025 67.8218 1025 56.5C1025 45.1782 1015.82 36 1004.5 36C993.178 36 984 45.1782 984 56.5C984 67.8218 993.178 77 1004.5 77Z" fill="white"/>
</g>
<path d="M1012 51.539C1011.4 51.8 1010.77 51.973 1010.11 52.057C1010.79 51.651 1011.31 51.013 1011.55 50.244C1010.92 50.622 1010.22 50.889 1009.47 51.038C1008.87 50.397 1008.01 50 1007.08 50C1005.26 50 1003.8 51.474 1003.8 53.281C1003.8 53.541 1003.82 53.791 1003.88 54.029C1001.15 53.896 998.735 52.589 997.114 50.598C996.831 51.089 996.665 51.651 996.665 52.256C996.665 53.392 997.25 54.399 998.122 54.982C997.595 54.972 997.078 54.819 996.64 54.578C996.64 54.588 996.64 54.601 996.64 54.614C996.64 56.208 997.777 57.532 999.268 57.837C999.001 57.91 998.71 57.945 998.408 57.945C998.198 57.945 997.986 57.933 997.787 57.889C998.212 59.188 999.418 60.143 1000.85 60.174C999.736 61.047 998.319 61.573 996.785 61.573C996.516 61.573 996.258 61.561 996 61.528C997.453 62.465 999.175 63 1001.03 63C1007.07 63 1010.37 58 1010.37 53.666C1010.37 53.521 1010.36 53.381 1010.36 53.242C1011.01 52.78 1011.55 52.203 1012 51.539Z" fill="#080809"/>
<g filter="url(#filter2_d_1_501)">
<path fill-rule="evenodd" clip-rule="evenodd" d="M868.5 75C879.822 75 889 65.8218 889 54.5C889 43.1782 879.822 34 868.5 34C857.178 34 848 43.1782 848 54.5C848 65.8218 857.178 75 868.5 75Z" fill="white"/>
</g>
<path fill-rule="evenodd" clip-rule="evenodd" d="M871.108 52.2445C870.788 52.1432 870.42 52.0757 870.084 52.0757C869.668 52.0757 868.772 52.3626 868.772 52.9195V54.2527H870.9V56.4971H868.772V62.6905H866.627V56.4971H865.571V54.2527H866.627V53.122C866.627 51.4176 867.364 50 869.14 50C869.748 50 870.836 50.0338 871.428 50.2531L871.108 52.2445Z" fill="#080809"/>
<g filter="url(#filter3_d_1_501)">
<path fill-rule="evenodd" clip-rule="evenodd" d="M936.5 79C948.926 79 959 68.9264 959 56.5C959 44.0736 948.926 34 936.5 34C924.074 34 914 44.0736 914 56.5C914 68.9264 924.074 79 936.5 79Z" fill="url(#paint0_angular_1_501)"/>
</g>
<g clip-path="url(#clip0_1_501)">
<path d="M942.656 48H931.344C930.052 48 929 49.0516 929 50.3438V61.6562C929 62.9487 930.052 64 931.344 64H942.656C943.949 64 945 62.9487 945 61.6562V50.3438C945 49.0516 943.949 48 942.656 48ZM944.062 61.6562C944.062 62.4316 943.432 63.0625 942.656 63.0625H931.344C930.568 63.0625 929.938 62.4316 929.938 61.6562V50.3438C929.938 49.5684 930.568 48.9375 931.344 48.9375H942.656C943.432 48.9375 944.062 49.5684 944.062 50.3438V61.6562Z" fill="white"/>
<path d="M942.156 49.9062C941.639 49.9062 941.219 50.3269 941.219 50.8438C941.219 51.3606 941.639 51.7812 942.156 51.7812C942.673 51.7812 943.094 51.3606 943.094 50.8438C943.094 50.3269 942.673 49.9062 942.156 49.9062Z" fill="white"/>
<path d="M937 51.7812C934.674 51.7812 932.781 53.6737 932.781 56C932.781 58.3263 934.674 60.2188 937 60.2188C939.326 60.2188 941.219 58.3263 941.219 56C941.219 53.6737 939.326 51.7812 937 51.7812ZM937 59.2812C935.191 59.2812 933.719 57.8094 933.719 56C933.719 54.1906 935.191 52.7188 937 52.7188C938.809 52.7188 940.281 54.1906 940.281 56C940.281 57.8094 938.809 59.2812 937 59.2812Z" fill="white"/>
</g>
<path d="M854.04 111.1H849.5V125H854.04C858.5 125 861.42 122.38 861.42 118.1C861.42 113.8 858.5 111.1 854.04 111.1ZM851.78 123.14V112.96H854.04C857.32 112.96 859.08 114.92 859.08 118.1C859.08 121.26 857.32 123.14 854.04 123.14H851.78ZM863.78 125H866.06V113.98H863.78V125ZM864.94 112.52C865.74 112.52 866.38 111.88 866.38 111.06C866.38 110.24 865.74 109.6 864.94 109.6C864.12 109.6 863.48 110.24 863.48 111.06C863.48 111.88 864.12 112.52 864.94 112.52ZM877.373 121.92C877.253 117.94 871.033 119.18 871.033 116.96C871.033 116.22 871.673 115.72 872.893 115.72C874.133 115.72 874.873 116.38 874.953 117.34H877.233C877.113 115.14 875.473 113.8 872.973 113.8C870.373 113.8 868.733 115.22 868.733 116.98C868.733 121.02 875.133 119.78 875.133 121.94C875.133 122.7 874.433 123.26 873.113 123.26C871.853 123.26 870.993 122.52 870.913 121.62H868.553C868.653 123.62 870.513 125.18 873.153 125.18C875.753 125.18 877.373 123.78 877.373 121.92ZM879.177 119.48C879.177 122.94 881.417 125.18 884.577 125.18C887.277 125.18 889.037 123.68 889.657 121.52H887.197C886.777 122.66 885.937 123.26 884.577 123.26C882.737 123.26 881.517 121.9 881.517 119.48C881.517 117.08 882.737 115.72 884.577 115.72C885.937 115.72 886.817 116.4 887.197 117.46H889.657C889.037 115.14 887.277 113.8 884.577 113.8C881.417 113.8 879.177 116.04 879.177 119.48ZM902.529 119.48C902.529 116.02 900.049 113.8 896.909 113.8C893.769 113.8 891.289 116.02 891.289 119.48C891.289 122.94 893.669 125.18 896.809 125.18C899.969 125.18 902.529 122.94 902.529 119.48ZM893.609 119.48C893.609 116.98 895.149 115.78 896.869 115.78C898.569 115.78 900.189 116.98 900.189 119.48C900.189 121.98 898.509 123.2 896.809 123.2C895.089 123.2 893.609 121.98 893.609 119.48ZM903.583 113.98L907.763 125H910.483L914.683 113.98H912.263L909.143 122.96L906.023 113.98H903.583ZM921.146 115.72C922.846 115.72 924.186 116.8 924.226 118.5H918.126C918.366 116.76 919.606 115.72 921.146 115.72ZM926.306 121.72H923.846C923.426 122.58 922.646 123.26 921.246 123.26C919.566 123.26 918.266 122.16 918.106 120.34H926.526C926.586 119.96 926.606 119.6 926.606 119.22C926.606 115.98 924.386 113.8 921.246 113.8C917.986 113.8 915.746 116.02 915.746 119.48C915.746 122.94 918.086 125.18 921.246 125.18C923.946 125.18 925.686 123.64 926.306 121.72ZM931.23 119.2C931.23 116.86 932.27 116.16 933.95 116.16H934.53V113.8C932.97 113.8 931.87 114.48 931.23 115.58V113.98H928.95V125H931.23V119.2ZM952.521 119.48C952.521 116.02 950.041 113.8 946.901 113.8C943.761 113.8 941.281 116.02 941.281 119.48C941.281 122.94 943.661 125.18 946.801 125.18C949.961 125.18 952.521 122.94 952.521 119.48ZM943.601 119.48C943.601 116.98 945.141 115.78 946.861 115.78C948.561 115.78 950.181 116.98 950.181 119.48C950.181 121.98 948.501 123.2 946.801 123.2C945.081 123.2 943.601 121.98 943.601 119.48ZM964.855 113.98H962.575V120.12C962.575 122.14 961.475 123.18 959.795 123.18C958.135 123.18 957.035 122.14 957.035 120.12V113.98H954.775V120.46C954.775 123.54 956.735 125.16 959.315 125.16C960.615 125.16 961.855 124.62 962.575 123.68V125H964.855V113.98ZM970.243 119.2C970.243 116.86 971.283 116.16 972.963 116.16H973.543V113.8C971.983 113.8 970.883 114.48 970.243 115.58V113.98H967.963V125H970.243V119.2ZM980.274 119.44C980.274 122.84 982.574 125.18 985.434 125.18C987.274 125.18 988.594 124.3 989.294 123.36V125H991.594V113.98H989.294V115.58C988.614 114.68 987.334 113.8 985.474 113.8C982.574 113.8 980.274 116.04 980.274 119.44ZM989.294 119.48C989.294 121.86 987.674 123.2 985.954 123.2C984.254 123.2 982.614 121.82 982.614 119.44C982.614 117.06 984.254 115.78 985.954 115.78C987.674 115.78 989.294 117.12 989.294 119.48ZM996.969 115.6V113.98H994.689V130.24H996.969V123.4C997.689 124.26 998.989 125.18 1000.81 125.18C1003.71 125.18 1005.99 122.84 1005.99 119.44C1005.99 116.04 1003.71 113.8 1000.81 113.8C999.009 113.8 997.669 114.68 996.969 115.6ZM1003.67 119.44C1003.67 121.82 1002.03 123.2 1000.31 123.2C998.609 123.2 996.969 121.86 996.969 119.48C996.969 117.12 998.609 115.78 1000.31 115.78C1002.03 115.78 1003.67 117.06 1003.67 119.44ZM1010.62 115.6V113.98H1008.34V130.24H1010.62V123.4C1011.34 124.26 1012.64 125.18 1014.46 125.18C1017.36 125.18 1019.64 122.84 1019.64 119.44C1019.64 116.04 1017.36 113.8 1014.46 113.8C1012.66 113.8 1011.32 114.68 1010.62 115.6ZM1017.32 119.44C1017.32 121.82 1015.68 123.2 1013.96 123.2C1012.26 123.2 1010.62 121.86 1010.62 119.48C1010.62 117.12 1012.26 115.78 1013.96 115.78C1015.68 115.78 1017.32 117.06 1017.32 119.44Z" fill="#5E6282"/>
<rect x="846" y="146" width="107" height="35" rx="17.5" fill="#080809"/>
<g clip-path="url(#clip1_1_501)">
<path d="M874.507 163.002L864.464 172.673C863.994 172.352 863.714 171.817 863.719 171.247V154.756C863.714 154.187 863.994 153.652 864.464 153.331L874.507 163.002Z" fill="#2196F3"/>
<path d="M878.022 159.624L874.507 163.002L864.464 153.331C864.502 153.301 864.541 153.274 864.582 153.249C865.113 152.927 865.776 152.917 866.316 153.222L878.022 159.624Z" fill="#4CAF50"/>
<path d="M882.281 163.002C882.287 163.645 881.938 164.239 881.373 164.545L878.022 166.38L874.507 163.002L878.022 159.624L881.373 161.458C881.938 161.765 882.287 162.359 882.281 163.002Z" fill="#F0BB1F"/>
<path d="M878.022 166.38L866.316 172.782C865.775 173.082 865.114 173.072 864.582 172.755C864.541 172.73 864.502 172.703 864.464 172.673L874.507 163.002L878.022 166.38Z" fill="#F15A2B"/>
</g>
<path d="M894.024 157.88H891.216V159H892.712C892.512 159.536 892.024 159.864 891.28 159.864C890.192 159.864 889.52 159.168 889.52 158.216C889.52 157.232 890.224 156.536 891.168 156.536C891.8 156.536 892.304 156.824 892.536 157.192L893.624 156.568C893.152 155.816 892.248 155.288 891.176 155.288C889.528 155.288 888.24 156.584 888.24 158.208C888.24 159.816 889.504 161.112 891.264 161.112C892.832 161.112 894.024 160.072 894.024 158.36V157.88Z" fill="white"/>
<path d="M895.626 159.768V158.776H897.626V157.56H895.626V156.632H897.826V155.4H894.346V161H897.866V159.768H895.626Z" fill="white"/>
<path d="M901.948 155.4H897.788V156.632H899.228V161H900.508V156.632H901.948V155.4Z" fill="white"/>
<path d="M903.708 155.4V161H904.988V155.4H903.708Z" fill="white"/>
<path d="M909.31 155.4H905.15V156.632H906.59V161H907.87V156.632H909.31V155.4Z" fill="white"/>
<path d="M913.743 161.112C915.351 161.112 916.655 159.848 916.655 158.2C916.655 156.552 915.351 155.288 913.743 155.288C912.135 155.288 910.831 156.552 910.831 158.2C910.831 159.848 912.135 161.112 913.743 161.112ZM913.743 159.864C912.831 159.864 912.111 159.2 912.111 158.2C912.111 157.2 912.831 156.536 913.743 156.536C914.655 156.536 915.375 157.2 915.375 158.2C915.375 159.2 914.655 159.864 913.743 159.864Z" fill="white"/>
<path d="M920.095 155.4V158.44L917.935 155.4H916.975V161H918.255V157.96L920.415 161H921.375V155.4H920.095Z" fill="white"/>
<path d="M894.024 167.392V167.608C894.024 168.307 893.776 168.896 893.28 169.376C892.784 169.851 892.131 170.088 891.32 170.088C890.467 170.088 889.763 169.811 889.208 169.256C888.653 168.696 888.376 168.011 888.376 167.2C888.376 166.389 888.651 165.707 889.2 165.152C889.749 164.592 890.445 164.312 891.288 164.312C891.8 164.312 892.269 164.435 892.696 164.68C893.128 164.925 893.461 165.253 893.696 165.664L893.32 165.888C893.133 165.536 892.856 165.253 892.488 165.04C892.125 164.827 891.725 164.72 891.288 164.72C890.563 164.72 889.965 164.96 889.496 165.44C889.032 165.915 888.8 166.501 888.8 167.2C888.8 167.899 889.035 168.488 889.504 168.968C889.973 169.443 890.579 169.68 891.32 169.68C891.976 169.68 892.507 169.501 892.912 169.144C893.317 168.787 893.544 168.336 893.592 167.792H891.216V167.392H894.024Z" fill="white"/>
<path d="M899.703 169.248C899.143 169.808 898.46 170.088 897.655 170.088C896.849 170.088 896.167 169.808 895.607 169.248C895.047 168.683 894.767 168 894.767 167.2C894.767 166.4 895.047 165.72 895.607 165.16C896.167 164.595 896.849 164.312 897.655 164.312C898.46 164.312 899.143 164.595 899.703 165.16C900.263 165.72 900.543 166.4 900.543 167.2C900.543 168 900.263 168.683 899.703 169.248ZM895.903 168.96C896.383 169.44 896.967 169.68 897.655 169.68C898.343 169.68 898.924 169.44 899.399 168.96C899.879 168.475 900.119 167.888 900.119 167.2C900.119 166.512 899.879 165.928 899.399 165.448C898.924 164.963 898.343 164.72 897.655 164.72C896.967 164.72 896.383 164.963 895.903 165.448C895.428 165.928 895.191 166.512 895.191 167.2C895.191 167.888 895.428 168.475 895.903 168.96Z" fill="white"/>
<path d="M906.234 169.248C905.674 169.808 904.991 170.088 904.186 170.088C903.381 170.088 902.698 169.808 902.138 169.248C901.578 168.683 901.298 168 901.298 167.2C901.298 166.4 901.578 165.72 902.138 165.16C902.698 164.595 903.381 164.312 904.186 164.312C904.991 164.312 905.674 164.595 906.234 165.16C906.794 165.72 907.074 166.4 907.074 167.2C907.074 168 906.794 168.683 906.234 169.248ZM902.434 168.96C902.914 169.44 903.498 169.68 904.186 169.68C904.874 169.68 905.455 169.44 905.93 168.96C906.41 168.475 906.65 167.888 906.65 167.2C906.65 166.512 906.41 165.928 905.93 165.448C905.455 164.963 904.874 164.72 904.186 164.72C903.498 164.72 902.914 164.963 902.434 165.448C901.959 165.928 901.722 166.512 901.722 167.2C901.722 167.888 901.959 168.475 902.434 168.96Z" fill="white"/>
<path d="M913.477 167.392V167.608C913.477 168.307 913.229 168.896 912.733 169.376C912.237 169.851 911.584 170.088 910.773 170.088C909.92 170.088 909.216 169.811 908.661 169.256C908.106 168.696 907.829 168.011 907.829 167.2C907.829 166.389 908.104 165.707 908.653 165.152C909.202 164.592 909.898 164.312 910.741 164.312C911.253 164.312 911.722 164.435 912.149 164.68C912.581 164.925 912.914 165.253 913.149 165.664L912.773 165.888C912.586 165.536 912.309 165.253 911.941 165.04C911.578 164.827 911.178 164.72 910.741 164.72C910.016 164.72 909.418 164.96 908.949 165.44C908.485 165.915 908.253 166.501 908.253 167.2C908.253 167.899 908.488 168.488 908.957 168.968C909.426 169.443 910.032 169.68 910.773 169.68C911.429 169.68 911.96 169.501 912.365 169.144C912.77 168.787 912.997 168.336 913.045 167.792H910.669V167.392H913.477Z" fill="white"/>
<path d="M914.964 169.6H917.604V170H914.54V164.4H914.964V169.6Z" fill="white"/>
<path d="M918.909 169.6H921.709V170H918.485V164.4H921.669V164.8H918.909V166.976H921.469V167.376H918.909V169.6Z" fill="white"/>
<path d="M926.787 164.4C927.289 164.4 927.705 164.565 928.035 164.896C928.366 165.227 928.531 165.64 928.531 166.136C928.531 166.632 928.366 167.045 928.035 167.376C927.705 167.701 927.289 167.864 926.787 167.864H925.307V170H924.883V164.4H926.787ZM926.787 167.464C927.171 167.464 927.486 167.339 927.731 167.088C927.982 166.837 928.107 166.52 928.107 166.136C928.107 165.747 927.982 165.427 927.731 165.176C927.486 164.925 927.171 164.8 926.787 164.8H925.307V167.464H926.787Z" fill="white"/>
<path d="M930.003 169.6H932.643V170H929.579V164.4H930.003V169.6Z" fill="white"/>
<path d="M937.448 170L936.904 168.576H934.096L933.552 170H933.104L935.28 164.4H935.728L937.896 170H937.448ZM934.256 168.176H936.752L935.504 164.92L934.256 168.176Z" fill="white"/>
<path d="M941.881 164.4L939.841 167.696V170H939.417V167.696L937.377 164.4H937.857L939.633 167.288L941.401 164.4H941.881Z" fill="white"/>
<rect x="960" y="146" width="100" height="35" rx="17.5" fill="#080809"/>
<path d="M981.789 170C979.408 169.986 977.438 165.125 977.438 162.65C977.438 158.606 980.472 157.72 981.641 157.72C982.168 157.72 982.73 157.927 983.227 158.11C983.574 158.238 983.933 158.37 984.132 158.37C984.252 158.37 984.533 158.258 984.782 158.159C985.312 157.948 985.971 157.686 986.74 157.686C986.741 157.686 986.743 157.686 986.744 157.686C987.318 157.686 989.057 157.812 990.102 159.382L990.347 159.75L989.995 160.016C989.491 160.396 988.572 161.089 988.572 162.462C988.572 164.088 989.613 164.713 990.113 165.014C990.333 165.147 990.562 165.284 990.562 165.583C990.562 165.778 989.002 169.976 986.736 169.976C986.182 169.976 985.79 169.809 985.444 169.662C985.095 169.513 984.793 169.385 984.295 169.385C984.042 169.385 983.722 169.505 983.384 169.631C982.922 169.804 982.399 170 981.805 170H981.789Z" fill="white"/>
<path d="M986.98 154C987.039 156.127 985.517 157.603 983.997 157.511C983.747 155.813 985.517 154 986.98 154Z" fill="white"/>
<path d="M999.03 159H1000.08L998.652 154.8H997.428L996 159H997.05L997.26 158.34H998.82L999.03 159ZM997.548 157.44L998.04 155.898L998.532 157.44H997.548Z" fill="white"/>
<path d="M1002.2 156L1001.58 157.902L1000.96 156H999.961L1001.07 159H1002.09L1003.2 156H1002.2Z" fill="white"/>
<path d="M1005.59 156V156.282C1005.39 156.054 1005.1 155.916 1004.7 155.916C1003.91 155.916 1003.26 156.606 1003.26 157.5C1003.26 158.394 1003.91 159.084 1004.7 159.084C1005.1 159.084 1005.39 158.946 1005.59 158.718V159H1006.49V156H1005.59ZM1004.88 158.232C1004.46 158.232 1004.16 157.95 1004.16 157.5C1004.16 157.05 1004.46 156.768 1004.88 156.768C1005.29 156.768 1005.59 157.05 1005.59 157.5C1005.59 157.95 1005.29 158.232 1004.88 158.232Z" fill="white"/>
<path d="M1007.15 159H1008.05V154.62H1007.15V159Z" fill="white"/>
<path d="M1009.16 155.736C1009.45 155.736 1009.7 155.49 1009.7 155.196C1009.7 154.902 1009.45 154.656 1009.16 154.656C1008.87 154.656 1008.62 154.902 1008.62 155.196C1008.62 155.49 1008.87 155.736 1009.16 155.736ZM1008.71 159H1009.61V156H1008.71V159Z" fill="white"/>
<path d="M1012.06 155.916C1011.66 155.916 1011.37 156.054 1011.17 156.282V154.8H1010.27V159H1011.17V158.718C1011.37 158.946 1011.66 159.084 1012.06 159.084C1012.85 159.084 1013.5 158.394 1013.5 157.5C1013.5 156.606 1012.85 155.916 1012.06 155.916ZM1011.88 158.232C1011.47 158.232 1011.17 157.95 1011.17 157.5C1011.17 157.05 1011.47 156.768 1011.88 156.768C1012.3 156.768 1012.6 157.05 1012.6 157.5C1012.6 157.95 1012.3 158.232 1011.88 158.232Z" fill="white"/>
<path d="M1014.01 159H1014.91V154.62H1014.01V159Z" fill="white"/>
<path d="M1016.37 157.86H1018.5C1018.52 157.746 1018.54 157.626 1018.54 157.5C1018.54 156.594 1017.89 155.916 1017.01 155.916C1016.06 155.916 1015.42 156.606 1015.42 157.5C1015.42 158.394 1016.05 159.084 1017.08 159.084C1017.65 159.084 1018.09 158.874 1018.39 158.466L1017.67 158.052C1017.55 158.184 1017.34 158.28 1017.09 158.28C1016.76 158.28 1016.48 158.172 1016.37 157.86ZM1016.35 157.188C1016.44 156.882 1016.66 156.714 1017.01 156.714C1017.28 156.714 1017.55 156.84 1017.64 157.188H1016.35Z" fill="white"/>
<path d="M1021.99 159.084C1022.87 159.084 1023.58 158.394 1023.58 157.5C1023.58 156.606 1022.87 155.916 1021.99 155.916C1021.1 155.916 1020.4 156.606 1020.4 157.5C1020.4 158.394 1021.1 159.084 1021.99 159.084ZM1021.99 158.208C1021.6 158.208 1021.3 157.926 1021.3 157.5C1021.3 157.074 1021.6 156.792 1021.99 156.792C1022.38 156.792 1022.68 157.074 1022.68 157.5C1022.68 157.926 1022.38 158.208 1021.99 158.208Z" fill="white"/>
<path d="M1025.84 155.916C1025.45 155.916 1025.15 156.06 1024.99 156.282V156H1024.09V159H1024.99V157.362C1024.99 156.936 1025.21 156.744 1025.54 156.744C1025.83 156.744 1026.07 156.918 1026.07 157.29V159H1026.97V157.158C1026.97 156.348 1026.45 155.916 1025.84 155.916Z" fill="white"/>
<path d="M1030.84 156.864V156H1030.22V155.16L1029.32 155.43V156H1028.84V156.864H1029.32V157.926C1029.32 158.766 1029.67 159.12 1030.84 159V158.184C1030.45 158.208 1030.22 158.184 1030.22 157.926V156.864H1030.84Z" fill="white"/>
<path d="M1033.11 155.916C1032.71 155.916 1032.41 156.06 1032.25 156.282V154.8H1031.35V159H1032.25V157.362C1032.25 156.936 1032.48 156.744 1032.81 156.744C1033.1 156.744 1033.33 156.918 1033.33 157.29V159H1034.23V157.158C1034.23 156.348 1033.72 155.916 1033.11 155.916Z" fill="white"/>
<path d="M1035.65 157.86H1037.78C1037.81 157.746 1037.82 157.626 1037.82 157.5C1037.82 156.594 1037.17 155.916 1036.3 155.916C1035.35 155.916 1034.7 156.606 1034.7 157.5C1034.7 158.394 1035.34 159.084 1036.36 159.084C1036.93 159.084 1037.38 158.874 1037.67 158.466L1036.95 158.052C1036.83 158.184 1036.62 158.28 1036.37 158.28C1036.04 158.28 1035.77 158.172 1035.65 157.86ZM1035.64 157.188C1035.72 156.882 1035.95 156.714 1036.29 156.714C1036.56 156.714 1036.83 156.84 1036.93 157.188H1035.64Z" fill="white"/>
<path d="M1001.05 170H1002.8L1000.42 163H998.38L996 170H997.75L998.1 168.9H1000.7L1001.05 170ZM998.58 167.4L999.4 164.83L1000.22 167.4H998.58Z" fill="white"/>
<path d="M1006.34 164.86C1005.67 164.86 1005.18 165.09 1004.85 165.47V165H1003.35V172H1004.85V169.53C1005.18 169.91 1005.67 170.14 1006.34 170.14C1007.65 170.14 1008.73 168.99 1008.73 167.5C1008.73 166.01 1007.65 164.86 1006.34 164.86ZM1006.04 168.72C1005.35 168.72 1004.85 168.25 1004.85 167.5C1004.85 166.75 1005.35 166.28 1006.04 166.28C1006.73 166.28 1007.23 166.75 1007.23 167.5C1007.23 168.25 1006.73 168.72 1006.04 168.72Z" fill="white"/>
<path d="M1012.57 164.86C1011.9 164.86 1011.41 165.09 1011.08 165.47V165H1009.58V172H1011.08V169.53C1011.41 169.91 1011.9 170.14 1012.57 170.14C1013.88 170.14 1014.96 168.99 1014.96 167.5C1014.96 166.01 1013.88 164.86 1012.57 164.86ZM1012.27 168.72C1011.58 168.72 1011.08 168.25 1011.08 167.5C1011.08 166.75 1011.58 166.28 1012.27 166.28C1012.96 166.28 1013.46 166.75 1013.46 167.5C1013.46 168.25 1012.96 168.72 1012.27 168.72Z" fill="white"/>
<path d="M1015.81 170H1017.31V162.7H1015.81V170Z" fill="white"/>
<path d="M1019.75 168.1H1023.3C1023.34 167.91 1023.36 167.71 1023.36 167.5C1023.36 165.99 1022.28 164.86 1020.82 164.86C1019.24 164.86 1018.16 166.01 1018.16 167.5C1018.16 168.99 1019.22 170.14 1020.93 170.14C1021.88 170.14 1022.62 169.79 1023.11 169.11L1021.91 168.42C1021.71 168.64 1021.36 168.8 1020.95 168.8C1020.4 168.8 1019.94 168.62 1019.75 168.1ZM1019.72 166.98C1019.86 166.47 1020.24 166.19 1020.81 166.19C1021.26 166.19 1021.71 166.4 1021.87 166.98H1019.72Z" fill="white"/>
<path d="M1029.21 170.14C1030.73 170.14 1031.81 169.34 1031.81 167.99C1031.81 166.51 1030.62 166.14 1029.56 165.82C1028.47 165.49 1028.3 165.27 1028.3 164.95C1028.3 164.67 1028.55 164.42 1029.05 164.42C1029.69 164.42 1030.02 164.73 1030.26 165.23L1031.61 164.44C1031.1 163.41 1030.2 162.86 1029.05 162.86C1027.84 162.86 1026.7 163.64 1026.7 164.99C1026.7 166.33 1027.72 166.83 1028.76 167.12C1029.81 167.41 1030.21 167.58 1030.21 168.01C1030.21 168.28 1030.02 168.58 1029.26 168.58C1028.47 168.58 1028.04 168.19 1027.79 167.61L1026.41 168.41C1026.8 169.44 1027.74 170.14 1029.21 170.14Z" fill="white"/>
<path d="M1035.34 166.44V165H1034.31V163.6L1032.81 164.05V165H1032.01V166.44H1032.81V168.21C1032.81 169.61 1033.38 170.2 1035.34 170V168.64C1034.68 168.68 1034.31 168.64 1034.31 168.21V166.44H1035.34Z" fill="white"/>
<path d="M1038.49 170.14C1039.96 170.14 1041.14 168.99 1041.14 167.5C1041.14 166.01 1039.96 164.86 1038.49 164.86C1037.02 164.86 1035.84 166.01 1035.84 167.5C1035.84 168.99 1037.02 170.14 1038.49 170.14ZM1038.49 168.68C1037.84 168.68 1037.34 168.21 1037.34 167.5C1037.34 166.79 1037.84 166.32 1038.49 166.32C1039.14 166.32 1039.64 166.79 1039.64 167.5C1039.64 168.21 1039.14 168.68 1038.49 168.68Z" fill="white"/>
<path d="M1043.49 165.89V165H1041.99V170H1043.49V167.74C1043.49 166.75 1044.37 166.5 1044.99 166.6V164.9C1044.36 164.9 1043.69 165.22 1043.49 165.89Z" fill="white"/>
<path d="M1046.88 168.1H1050.43C1050.47 167.91 1050.49 167.71 1050.49 167.5C1050.49 165.99 1049.41 164.86 1047.95 164.86C1046.37 164.86 1045.29 166.01 1045.29 167.5C1045.29 168.99 1046.35 170.14 1048.06 170.14C1049.01 170.14 1049.75 169.79 1050.24 169.11L1049.04 168.42C1048.84 168.64 1048.49 168.8 1048.08 168.8C1047.53 168.8 1047.07 168.62 1046.88 168.1ZM1046.85 166.98C1046.99 166.47 1047.37 166.19 1047.94 166.19C1048.39 166.19 1048.84 166.4 1049 166.98H1046.85Z" fill="white"/>
<path d="M14.916 52.464C14.916 55.016 13.64 56.864 10.956 56.864C8.272 56.864 7.04 55.016 6.996 52.464H1.936C1.936 58.008 5.676 61.308 10.956 61.308C16.236 61.308 19.976 58.008 19.976 52.464V30.42H14.916V52.464ZM26.4639 48.768C26.4639 56.248 31.5239 61.396 37.8159 61.396C41.8639 61.396 44.7679 59.46 46.3079 57.392V61H51.3679V36.756H46.3079V40.276C44.8119 38.296 41.9959 36.36 37.9039 36.36C31.5239 36.36 26.4639 41.288 26.4639 48.768ZM46.3079 48.856C46.3079 54.092 42.7439 57.04 38.9599 57.04C35.2199 57.04 31.6119 54.004 31.6119 48.768C31.6119 43.532 35.2199 40.716 38.9599 40.716C42.7439 40.716 46.3079 43.664 46.3079 48.856ZM56.2843 48.768C56.2843 56.248 61.3443 61.396 67.7243 61.396C71.6843 61.396 74.5883 59.548 76.1283 57.348V61H81.1883V28.44H76.1283V40.144C74.2803 37.856 70.9363 36.36 67.7683 36.36C61.3443 36.36 56.2843 41.288 56.2843 48.768ZM76.1283 48.856C76.1283 54.092 72.5643 57.04 68.7803 57.04C65.0403 57.04 61.4323 54.004 61.4323 48.768C61.4323 43.532 65.0403 40.716 68.7803 40.716C72.5643 40.716 76.1283 43.664 76.1283 48.856ZM110.877 48.856C110.877 41.244 105.421 36.36 98.5126 36.36C91.6046 36.36 86.1486 41.244 86.1486 48.856C86.1486 56.468 91.3846 61.396 98.2926 61.396C105.245 61.396 110.877 56.468 110.877 48.856ZM91.2526 48.856C91.2526 43.356 94.6406 40.716 98.4246 40.716C102.165 40.716 105.729 43.356 105.729 48.856C105.729 54.356 102.033 57.04 98.2926 57.04C94.5086 57.04 91.2526 54.356 91.2526 48.856ZM138.935 48.856C138.935 41.244 133.479 36.36 126.571 36.36C119.663 36.36 114.207 41.244 114.207 48.856C114.207 56.468 119.443 61.396 126.351 61.396C133.303 61.396 138.935 56.468 138.935 48.856ZM119.311 48.856C119.311 43.356 122.699 40.716 126.483 40.716C130.223 40.716 133.787 43.356 133.787 48.856C133.787 54.356 130.091 57.04 126.351 57.04C122.567 57.04 119.311 54.356 119.311 48.856ZM149.086 58.096C149.086 56.292 147.678 54.884 145.918 54.884C144.114 54.884 142.706 56.292 142.706 58.096C142.706 59.9 144.114 61.308 145.918 61.308C147.678 61.308 149.086 59.9 149.086 58.096Z" fill="#181E4B"/>
<path d="M6.071 108.413C6.071 109.284 5.46 109.791 4.459 109.791H2.457V106.97H4.407C5.395 106.97 6.071 107.516 6.071 108.413ZM5.837 104.474C5.837 105.306 5.252 105.761 4.29 105.761H2.457V103.174H4.29C5.252 103.174 5.837 103.655 5.837 104.474ZM7.553 108.569C7.553 107.49 6.773 106.528 5.811 106.359C6.682 106.047 7.345 105.384 7.345 104.292C7.345 103.018 6.331 101.965 4.42 101.965H0.975V111H4.589C6.435 111 7.553 109.947 7.553 108.569ZM15.9885 107.412C15.9885 105.163 14.3765 103.72 12.3355 103.72C10.2945 103.72 8.68248 105.163 8.68248 107.412C8.68248 109.661 10.2295 111.117 12.2705 111.117C14.3245 111.117 15.9885 109.661 15.9885 107.412ZM10.1905 107.412C10.1905 105.787 11.1915 105.007 12.3095 105.007C13.4145 105.007 14.4675 105.787 14.4675 107.412C14.4675 109.037 13.3755 109.83 12.2705 109.83C11.1525 109.83 10.1905 109.037 10.1905 107.412ZM24.2785 107.412C24.2785 105.163 22.6665 103.72 20.6255 103.72C18.5845 103.72 16.9725 105.163 16.9725 107.412C16.9725 109.661 18.5195 111.117 20.5605 111.117C22.6145 111.117 24.2785 109.661 24.2785 107.412ZM18.4805 107.412C18.4805 105.787 19.4815 105.007 20.5995 105.007C21.7045 105.007 22.7575 105.787 22.7575 107.412C22.7575 109.037 21.6655 109.83 20.5605 109.83C19.4425 109.83 18.4805 109.037 18.4805 107.412ZM25.7436 111H27.2256V107.919L29.8776 111H31.8796L28.5776 107.425L31.8796 103.837H29.8256L27.2256 106.97V101.38H25.7436V111ZM39.1398 109.297L37.1248 103.837H35.4738L38.2948 110.883L36.8388 114.367H38.3728L42.7668 103.837H41.2328L39.1398 109.297ZM50.7102 107.412C50.7102 105.163 49.0982 103.72 47.0572 103.72C45.0162 103.72 43.4042 105.163 43.4042 107.412C43.4042 109.661 44.9512 111.117 46.9922 111.117C49.0462 111.117 50.7102 109.661 50.7102 107.412ZM44.9122 107.412C44.9122 105.787 45.9132 105.007 47.0312 105.007C48.1362 105.007 49.1892 105.787 49.1892 107.412C49.1892 109.037 48.0972 109.83 46.9922 109.83C45.8742 109.83 44.9122 109.037 44.9122 107.412ZM58.6622 103.837H57.1802V107.828C57.1802 109.141 56.4652 109.817 55.3732 109.817C54.2942 109.817 53.5792 109.141 53.5792 107.828V103.837H52.1102V108.049C52.1102 110.051 53.3842 111.104 55.0612 111.104C55.9062 111.104 56.7122 110.753 57.1802 110.142V111H58.6622V103.837ZM62.0996 107.23C62.0996 105.709 62.7756 105.254 63.8676 105.254H64.2446V103.72C63.2306 103.72 62.5156 104.162 62.0996 104.877V103.837H60.6176V111H62.0996V107.23ZM69.2178 109.011C69.2178 110.467 70.0108 111 71.2848 111H72.4548V109.765H71.5448C70.9208 109.765 70.7128 109.544 70.7128 109.011V105.046H72.4548V103.837H70.7128V102.056H69.2178V103.837H68.3728V105.046H69.2178V109.011ZM75.3027 107.23C75.3027 105.709 75.9787 105.254 77.0707 105.254H77.4477V103.72C76.4337 103.72 75.7187 104.162 75.3027 104.877V103.837H73.8207V111H75.3027V107.23ZM78.81 111H80.292V103.837H78.81V111ZM79.564 102.888C80.084 102.888 80.5 102.472 80.5 101.939C80.5 101.406 80.084 100.99 79.564 100.99C79.031 100.99 78.615 101.406 78.615 101.939C78.615 102.472 79.031 102.888 79.564 102.888ZM83.7197 104.89V103.837H82.2377V114.406H83.7197V109.96C84.1877 110.519 85.0327 111.117 86.2157 111.117C88.1007 111.117 89.5827 109.596 89.5827 107.386C89.5827 105.176 88.1007 103.72 86.2157 103.72C85.0457 103.72 84.1747 104.292 83.7197 104.89ZM88.0747 107.386C88.0747 108.933 87.0087 109.83 85.8907 109.83C84.7857 109.83 83.7197 108.959 83.7197 107.412C83.7197 105.878 84.7857 105.007 85.8907 105.007C87.0087 105.007 88.0747 105.839 88.0747 107.386ZM94.4252 111H95.9072V103.837H94.4252V111ZM95.1792 102.888C95.6992 102.888 96.1152 102.472 96.1152 101.939C96.1152 101.406 95.6992 100.99 95.1792 100.99C94.6462 100.99 94.2302 101.406 94.2302 101.939C94.2302 102.472 94.6462 102.888 95.1792 102.888ZM102.936 111H104.405V106.775C104.405 104.773 103.144 103.72 101.467 103.72C100.609 103.72 99.8159 104.071 99.3349 104.656V103.837H97.8529V111H99.3349V106.996C99.3349 105.683 100.05 105.007 101.142 105.007C102.221 105.007 102.936 105.683 102.936 106.996V111ZM119.825 111H121.294V106.775C121.294 104.773 120.02 103.72 118.343 103.72C117.303 103.72 116.289 104.266 115.847 105.137C115.353 104.201 114.404 103.72 113.273 103.72C112.415 103.72 111.635 104.071 111.154 104.656V103.837H109.672V111H111.154V106.996C111.154 105.683 111.869 105.007 112.961 105.007C114.04 105.007 114.755 105.683 114.755 106.996V111H116.224V106.996C116.224 105.683 116.939 105.007 118.031 105.007C119.11 105.007 119.825 105.683 119.825 106.996V111ZM123.18 111H124.662V103.837H123.18V111ZM123.934 102.888C124.454 102.888 124.87 102.472 124.87 101.939C124.87 101.406 124.454 100.99 123.934 100.99C123.401 100.99 122.985 101.406 122.985 101.939C122.985 102.472 123.401 102.888 123.934 102.888ZM131.691 111H133.16V106.775C133.16 104.773 131.899 103.72 130.222 103.72C129.364 103.72 128.571 104.071 128.09 104.656V103.837H126.608V111H128.09V106.996C128.09 105.683 128.805 105.007 129.897 105.007C130.976 105.007 131.691 105.683 131.691 106.996V111ZM141.537 103.837H140.055V107.828C140.055 109.141 139.34 109.817 138.248 109.817C137.169 109.817 136.454 109.141 136.454 107.828V103.837H134.985V108.049C134.985 110.051 136.259 111.104 137.936 111.104C138.781 111.104 139.587 110.753 140.055 110.142V111H141.537V103.837ZM143.727 109.011C143.727 110.467 144.52 111 145.794 111H146.964V109.765H146.054C145.43 109.765 145.222 109.544 145.222 109.011V105.046H146.964V103.837H145.222V102.056H143.727V103.837H142.882V105.046H143.727V109.011ZM151.345 104.968C152.45 104.968 153.321 105.67 153.347 106.775H149.382C149.538 105.644 150.344 104.968 151.345 104.968ZM154.699 108.868H153.1C152.827 109.427 152.32 109.869 151.41 109.869C150.318 109.869 149.473 109.154 149.369 107.971H154.842C154.881 107.724 154.894 107.49 154.894 107.243C154.894 105.137 153.451 103.72 151.41 103.72C149.291 103.72 147.835 105.163 147.835 107.412C147.835 109.661 149.356 111.117 151.41 111.117C153.165 111.117 154.296 110.116 154.699 108.868ZM155.443 112.807H156.405L157.978 109.219H156.366L155.443 112.807ZM162.156 107.386C162.156 109.596 163.651 111.117 165.536 111.117C166.706 111.117 167.564 110.532 168.019 109.921V111.117C168.019 112.547 167.161 113.249 166.017 113.249C164.99 113.249 164.197 112.742 163.976 112.001H162.507C162.689 113.587 164.106 114.536 166.017 114.536C168.253 114.536 169.514 113.067 169.514 111.117V103.837H168.019V104.877C167.577 104.266 166.706 103.72 165.536 103.72C163.651 103.72 162.156 105.176 162.156 107.386ZM168.019 107.412C168.019 108.959 166.966 109.83 165.848 109.83C164.743 109.83 163.677 108.933 163.677 107.386C163.677 105.839 164.743 105.007 165.848 105.007C166.966 105.007 168.019 105.878 168.019 107.412ZM174.476 104.968C175.581 104.968 176.452 105.67 176.478 106.775H172.513C172.669 105.644 173.475 104.968 174.476 104.968ZM177.83 108.868H176.231C175.958 109.427 175.451 109.869 174.541 109.869C173.449 109.869 172.604 109.154 172.5 107.971H177.973C178.012 107.724 178.025 107.49 178.025 107.243C178.025 105.137 176.582 103.72 174.541 103.72C172.422 103.72 170.966 105.163 170.966 107.412C170.966 109.661 172.487 111.117 174.541 111.117C176.296 111.117 177.427 110.116 177.83 108.868ZM179.718 109.011C179.718 110.467 180.511 111 181.785 111H182.955V109.765H182.045C181.421 109.765 181.213 109.544 181.213 109.011V105.046H182.955V103.837H181.213V102.056H179.718V103.837H178.873V105.046H179.718V109.011ZM187.88 111H189.375V105.046H190.701V103.837H189.375V103.33C189.375 102.511 189.687 102.199 190.597 102.199V100.964C188.725 100.964 187.88 101.679 187.88 103.33V103.837H187.035V105.046H187.88V111ZM198.501 103.837H197.019V107.828C197.019 109.141 196.304 109.817 195.212 109.817C194.133 109.817 193.418 109.141 193.418 107.828V103.837H191.949V108.049C191.949 110.051 193.223 111.104 194.9 111.104C195.745 111.104 196.551 110.753 197.019 110.142V111H198.501V103.837ZM200.456 111H201.938V101.38H200.456V111ZM203.884 111H205.366V101.38H203.884V111ZM0.481 122.463C0.481 125.18 2.548 127.078 5.096 127.078C6.981 127.078 8.606 126.142 9.295 124.374H7.514C7.033 125.336 6.175 125.791 5.096 125.791C3.302 125.791 2.002 124.504 2.002 122.463C2.002 120.422 3.302 119.148 5.096 119.148C6.175 119.148 7.033 119.603 7.514 120.565H9.295C8.606 118.797 6.981 117.848 5.096 117.848C2.548 117.848 0.481 119.759 0.481 122.463ZM17.8547 123.412C17.8547 121.163 16.2427 119.72 14.2017 119.72C12.1607 119.72 10.5487 121.163 10.5487 123.412C10.5487 125.661 12.0957 127.117 14.1367 127.117C16.1907 127.117 17.8547 125.661 17.8547 123.412ZM12.0567 123.412C12.0567 121.787 13.0577 121.007 14.1757 121.007C15.2807 121.007 16.3337 121.787 16.3337 123.412C16.3337 125.037 15.2417 125.83 14.1367 125.83C13.0187 125.83 12.0567 125.037 12.0567 123.412ZM24.4027 127H25.8717V122.775C25.8717 120.773 24.6107 119.72 22.9337 119.72C22.0757 119.72 21.2827 120.071 20.8017 120.656V119.837H19.3197V127H20.8017V122.996C20.8017 121.683 21.5167 121.007 22.6087 121.007C23.6877 121.007 24.4027 121.683 24.4027 122.996V127ZM27.9961 125.011C27.9961 126.467 28.7891 127 30.0631 127H31.2331V125.765H30.3231C29.6991 125.765 29.4911 125.544 29.4911 125.011V121.046H31.2331V119.837H29.4911V118.056H27.9961V119.837H27.1511V121.046H27.9961V125.011ZM34.081 123.23C34.081 121.709 34.757 121.254 35.849 121.254H36.226V119.72C35.212 119.72 34.497 120.162 34.081 120.877V119.837H32.599V127H34.081V123.23ZM44.4133 123.412C44.4133 121.163 42.8013 119.72 40.7603 119.72C38.7193 119.72 37.1073 121.163 37.1073 123.412C37.1073 125.661 38.6543 127.117 40.6953 127.117C42.7493 127.117 44.4133 125.661 44.4133 123.412ZM38.6153 123.412C38.6153 121.787 39.6163 121.007 40.7343 121.007C41.8393 121.007 42.8923 121.787 42.8923 123.412C42.8923 125.037 41.8003 125.83 40.6953 125.83C39.5773 125.83 38.6153 125.037 38.6153 123.412ZM45.8783 127H47.3603V117.38H45.8783V127ZM52.865 127H54.36V121.046H55.686V119.837H54.36V119.33C54.36 118.511 54.672 118.199 55.582 118.199V116.964C53.71 116.964 52.865 117.679 52.865 119.33V119.837H52.02V121.046H52.865V127ZM63.8244 123.412C63.8244 121.163 62.2124 119.72 60.1714 119.72C58.1304 119.72 56.5184 121.163 56.5184 123.412C56.5184 125.661 58.0654 127.117 60.1064 127.117C62.1604 127.117 63.8244 125.661 63.8244 123.412ZM58.0264 123.412C58.0264 121.787 59.0274 121.007 60.1454 121.007C61.2504 121.007 62.3034 121.787 62.3034 123.412C62.3034 125.037 61.2114 125.83 60.1064 125.83C58.9884 125.83 58.0264 125.037 58.0264 123.412ZM66.7715 123.23C66.7715 121.709 67.4475 121.254 68.5395 121.254H68.9165V119.72C67.9025 119.72 67.1875 120.162 66.7715 120.877V119.837H65.2895V127H66.7715V123.23ZM83.8087 127H85.2777V122.775C85.2777 120.773 84.0037 119.72 82.3267 119.72C81.2867 119.72 80.2727 120.266 79.8307 121.137C79.3367 120.201 78.3877 119.72 77.2567 119.72C76.3987 119.72 75.6187 120.071 75.1377 120.656V119.837H73.6557V127H75.1377V122.996C75.1377 121.683 75.8527 121.007 76.9447 121.007C78.0237 121.007 78.7387 121.683 78.7387 122.996V127H80.2077V122.996C80.2077 121.683 80.9227 121.007 82.0147 121.007C83.0937 121.007 83.8087 121.683 83.8087 122.996V127ZM93.6505 119.837H92.1685V123.828C92.1685 125.141 91.4535 125.817 90.3615 125.817C89.2825 125.817 88.5675 125.141 88.5675 123.828V119.837H87.0985V124.049C87.0985 126.051 88.3725 127.104 90.0495 127.104C90.8945 127.104 91.7005 126.753 92.1685 126.142V127H93.6505V119.837ZM95.1119 123.412C95.1119 125.661 96.5679 127.117 98.6219 127.117C100.377 127.117 101.521 126.142 101.924 124.738H100.325C100.052 125.479 99.5059 125.869 98.6219 125.869C97.4259 125.869 96.6329 124.985 96.6329 123.412C96.6329 121.852 97.4259 120.968 98.6219 120.968C99.5059 120.968 100.078 121.41 100.325 122.099H101.924C101.521 120.591 100.377 119.72 98.6219 119.72C96.5679 119.72 95.1119 121.176 95.1119 123.412ZM103.401 127H104.883V122.996C104.883 121.683 105.598 121.007 106.69 121.007C107.769 121.007 108.484 121.683 108.484 122.996V127H109.953V122.775C109.953 120.773 108.705 119.72 107.106 119.72C106.183 119.72 105.377 120.071 104.883 120.669V117.38H103.401V127ZM115.22 127H116.702V117.38H115.22V127ZM125.473 123.412C125.473 121.163 123.861 119.72 121.82 119.72C119.779 119.72 118.167 121.163 118.167 123.412C118.167 125.661 119.714 127.117 121.755 127.117C123.809 127.117 125.473 125.661 125.473 123.412ZM119.675 123.412C119.675 121.787 120.676 121.007 121.794 121.007C122.899 121.007 123.952 121.787 123.952 123.412C123.952 125.037 122.86 125.83 121.755 125.83C120.637 125.83 119.675 125.037 119.675 123.412ZM132.021 127H133.49V122.775C133.49 120.773 132.229 119.72 130.552 119.72C129.694 119.72 128.901 120.071 128.42 120.656V119.837H126.938V127H128.42V122.996C128.42 121.683 129.135 121.007 130.227 121.007C131.306 121.007 132.021 121.683 132.021 122.996V127ZM134.886 123.386C134.886 125.596 136.381 127.117 138.266 127.117C139.436 127.117 140.294 126.532 140.749 125.921V127.117C140.749 128.547 139.891 129.249 138.747 129.249C137.72 129.249 136.927 128.742 136.706 128.001H135.237C135.419 129.587 136.836 130.536 138.747 130.536C140.983 130.536 142.244 129.067 142.244 127.117V119.837H140.749V120.877C140.307 120.266 139.436 119.72 138.266 119.72C136.381 119.72 134.886 121.176 134.886 123.386ZM140.749 123.412C140.749 124.959 139.696 125.83 138.578 125.83C137.473 125.83 136.407 124.933 136.407 123.386C136.407 121.839 137.473 121.007 138.578 121.007C139.696 121.007 140.749 121.878 140.749 123.412ZM147.207 120.968C148.312 120.968 149.183 121.67 149.209 122.775H145.244C145.4 121.644 146.206 120.968 147.207 120.968ZM150.561 124.868H148.962C148.689 125.427 148.182 125.869 147.272 125.869C146.18 125.869 145.335 125.154 145.231 123.971H150.704C150.743 123.724 150.756 123.49 150.756 123.243C150.756 121.137 149.313 119.72 147.272 119.72C145.153 119.72 143.697 121.163 143.697 123.412C143.697 125.661 145.218 127.117 147.272 127.117C149.027 127.117 150.158 126.116 150.561 124.868ZM153.696 123.23C153.696 121.709 154.372 121.254 155.464 121.254H155.841V119.72C154.827 119.72 154.112 120.162 153.696 120.877V119.837H152.214V127H153.696V123.23ZM158.738 126.142C158.738 125.609 158.322 125.193 157.802 125.193C157.269 125.193 156.853 125.609 156.853 126.142C156.853 126.675 157.269 127.091 157.802 127.091C158.322 127.091 158.738 126.675 158.738 126.142Z" fill="#5E6282"/>
<path d="M290.693 46.608C290.693 51.018 293.759 54.105 298.106 54.105C301.613 54.105 304.259 52.152 305.099 48.96H301.151C300.542 50.22 299.429 50.85 298.064 50.85C295.859 50.85 294.347 49.212 294.347 46.608C294.347 44.004 295.859 42.366 298.064 42.366C299.429 42.366 300.542 42.996 301.151 44.256H305.099C304.259 41.064 301.613 39.09 298.106 39.09C293.759 39.09 290.693 42.198 290.693 46.608ZM318.764 48.141C318.764 44.424 316.118 42.114 312.674 42.114C309.251 42.114 306.584 44.424 306.584 48.141C306.584 51.858 309.188 54.168 312.632 54.168C316.076 54.168 318.764 51.858 318.764 48.141ZM310.238 48.141C310.238 46.146 311.372 45.222 312.674 45.222C313.934 45.222 315.11 46.146 315.11 48.141C315.11 50.115 313.913 51.06 312.632 51.06C311.33 51.06 310.238 50.115 310.238 48.141ZM336.818 54H340.388V47.154C340.388 44.004 338.519 42.156 335.621 42.156C333.92 42.156 332.45 43.101 331.673 44.34C330.875 42.933 329.447 42.156 327.683 42.156C326.15 42.156 324.953 42.807 324.26 43.752V42.282H320.669V54H324.26V47.637C324.26 46.104 325.142 45.264 326.507 45.264C327.872 45.264 328.754 46.104 328.754 47.637V54H332.324V47.637C332.324 46.104 333.206 45.264 334.571 45.264C335.936 45.264 336.818 46.104 336.818 47.637V54ZM346.491 43.941V42.282H342.9V59.586H346.491V52.362C347.142 53.349 348.381 54.168 350.103 54.168C352.98 54.168 355.269 51.816 355.269 48.12C355.269 44.424 352.98 42.114 350.103 42.114C348.381 42.114 347.142 42.912 346.491 43.941ZM351.615 48.12C351.615 49.989 350.397 51.039 349.032 51.039C347.688 51.039 346.47 50.01 346.47 48.141C346.47 46.272 347.688 45.243 349.032 45.243C350.397 45.243 351.615 46.251 351.615 48.12ZM356.439 48.12C356.439 51.816 358.728 54.168 361.584 54.168C363.327 54.168 364.566 53.37 365.217 52.341V54H368.808V42.282H365.217V43.941C364.587 42.912 363.348 42.114 361.605 42.114C358.728 42.114 356.439 44.424 356.439 48.12ZM365.217 48.141C365.217 50.01 364.02 51.039 362.655 51.039C361.311 51.039 360.093 49.989 360.093 48.12C360.093 46.251 361.311 45.243 362.655 45.243C364.02 45.243 365.217 46.272 365.217 48.141ZM379.491 54H383.061V47.154C383.061 44.004 381.255 42.156 378.546 42.156C376.971 42.156 375.711 42.849 374.997 43.836V42.282H371.406V54H374.997V47.637C374.997 46.041 375.879 45.159 377.244 45.159C378.609 45.159 379.491 46.041 379.491 47.637V54ZM390.953 49.611L388.244 42.282H384.233L389 53.601L386.312 59.565H390.176L397.526 42.282H393.641L390.953 49.611Z" fill="#080809"/>
<path d="M299.792 111H301.952L297.47 98.472H295.094L290.612 111H292.754L293.654 108.444H298.892L299.792 111ZM298.316 106.77H294.23L296.282 100.956L298.316 106.77ZM305.953 102.558V97.68H303.901V111H305.953V109.56C306.601 110.424 307.771 111.162 309.409 111.162C312.019 111.162 314.071 109.056 314.071 105.996C314.071 102.936 312.037 100.92 309.409 100.92C307.843 100.92 306.601 101.658 305.953 102.558ZM311.983 105.996C311.983 108.138 310.507 109.38 308.959 109.38C307.429 109.38 305.953 108.174 305.953 106.032C305.953 103.908 307.429 102.702 308.959 102.702C310.507 102.702 311.983 103.854 311.983 105.996ZM325.55 106.032C325.55 102.918 323.318 100.92 320.492 100.92C317.666 100.92 315.434 102.918 315.434 106.032C315.434 109.146 317.576 111.162 320.402 111.162C323.246 111.162 325.55 109.146 325.55 106.032ZM317.522 106.032C317.522 103.782 318.908 102.702 320.456 102.702C321.986 102.702 323.444 103.782 323.444 106.032C323.444 108.282 321.932 109.38 320.402 109.38C318.854 109.38 317.522 108.282 317.522 106.032ZM336.561 101.082H334.509V106.608C334.509 108.426 333.519 109.362 332.007 109.362C330.513 109.362 329.523 108.426 329.523 106.608V101.082H327.489V106.914C327.489 109.686 329.253 111.144 331.575 111.144C332.745 111.144 333.861 110.658 334.509 109.812V111H336.561V101.082ZM339.592 108.246C339.592 110.262 340.69 111 342.454 111H344.074V109.29H342.814C341.95 109.29 341.662 108.984 341.662 108.246V102.756H344.074V101.082H341.662V98.616H339.592V101.082H338.422V102.756H339.592V108.246Z" fill="#5E6282"/>
<path d="M290.666 138.718C290.666 142.48 293.528 145.108 297.056 145.108C299.666 145.108 301.916 143.812 302.87 141.364H300.404C299.738 142.696 298.55 143.326 297.056 143.326C294.572 143.326 292.772 141.544 292.772 138.718C292.772 135.892 294.572 134.128 297.056 134.128C298.55 134.128 299.738 134.758 300.404 136.09H302.87C301.916 133.642 299.666 132.328 297.056 132.328C293.528 132.328 290.666 134.974 290.666 138.718ZM304.588 139.996C304.588 143.056 306.658 145.162 309.232 145.162C310.888 145.162 312.076 144.37 312.706 143.524V145H314.776V135.082H312.706V136.522C312.094 135.712 310.942 134.92 309.268 134.92C306.658 134.92 304.588 136.936 304.588 139.996ZM312.706 140.032C312.706 142.174 311.248 143.38 309.7 143.38C308.17 143.38 306.694 142.138 306.694 139.996C306.694 137.854 308.17 136.702 309.7 136.702C311.248 136.702 312.706 137.908 312.706 140.032ZM319.523 139.78C319.523 137.674 320.459 137.044 321.971 137.044H322.493V134.92C321.089 134.92 320.099 135.532 319.523 136.522V135.082H317.471V145H319.523V139.78ZM328.555 136.648C330.085 136.648 331.291 137.62 331.327 139.15H325.837C326.053 137.584 327.169 136.648 328.555 136.648ZM333.199 142.048H330.985C330.607 142.822 329.905 143.434 328.645 143.434C327.133 143.434 325.963 142.444 325.819 140.806H333.397C333.451 140.464 333.469 140.14 333.469 139.798C333.469 136.882 331.471 134.92 328.645 134.92C325.711 134.92 323.695 136.918 323.695 140.032C323.695 143.146 325.801 145.162 328.645 145.162C331.075 145.162 332.641 143.776 333.199 142.048ZM339.665 136.648C341.195 136.648 342.401 137.62 342.437 139.15H336.947C337.163 137.584 338.279 136.648 339.665 136.648ZM344.309 142.048H342.095C341.717 142.822 341.015 143.434 339.755 143.434C338.243 143.434 337.073 142.444 336.929 140.806H344.507C344.561 140.464 344.579 140.14 344.579 139.798C344.579 136.882 342.581 134.92 339.755 134.92C336.821 134.92 334.805 136.918 334.805 140.032C334.805 143.146 336.911 145.162 339.755 145.162C342.185 145.162 343.751 143.776 344.309 142.048ZM348.65 139.78C348.65 137.674 349.586 137.044 351.098 137.044H351.62V134.92C350.216 134.92 349.226 135.532 348.65 136.522V135.082H346.598V145H348.65V139.78ZM360.904 142.228C360.796 138.646 355.198 139.762 355.198 137.764C355.198 137.098 355.774 136.648 356.872 136.648C357.988 136.648 358.654 137.242 358.726 138.106H360.778C360.67 136.126 359.194 134.92 356.944 134.92C354.604 134.92 353.128 136.198 353.128 137.782C353.128 141.418 358.888 140.302 358.888 142.246C358.888 142.93 358.258 143.434 357.07 143.434C355.936 143.434 355.162 142.768 355.09 141.958H352.966C353.056 143.758 354.73 145.162 357.106 145.162C359.446 145.162 360.904 143.902 360.904 142.228Z" fill="#5E6282"/>
<path d="M291.35 180H293.402V171.432L297.236 180H298.658L302.474 171.432V180H304.526V167.49H302.33L297.956 177.3L293.564 167.49H291.35V180ZM316.673 175.032C316.673 171.918 314.441 169.92 311.615 169.92C308.789 169.92 306.557 171.918 306.557 175.032C306.557 178.146 308.699 180.162 311.525 180.162C314.369 180.162 316.673 178.146 316.673 175.032ZM308.645 175.032C308.645 172.782 310.031 171.702 311.579 171.702C313.109 171.702 314.567 172.782 314.567 175.032C314.567 177.282 313.055 178.38 311.525 178.38C309.977 178.38 308.645 177.282 308.645 175.032ZM320.754 171.558V166.68H318.702V180H320.754V178.56C321.402 179.424 322.572 180.162 324.21 180.162C326.82 180.162 328.872 178.056 328.872 174.996C328.872 171.936 326.838 169.92 324.21 169.92C322.644 169.92 321.402 170.658 320.754 171.558ZM326.784 174.996C326.784 177.138 325.308 178.38 323.76 178.38C322.23 178.38 320.754 177.174 320.754 175.032C320.754 172.908 322.23 171.702 323.76 171.702C325.308 171.702 326.784 172.854 326.784 174.996ZM330.901 180H332.953V170.082H330.901V180ZM331.945 168.768C332.665 168.768 333.241 168.192 333.241 167.454C333.241 166.716 332.665 166.14 331.945 166.14C331.207 166.14 330.631 166.716 330.631 167.454C330.631 168.192 331.207 168.768 331.945 168.768ZM335.647 180H337.699V166.68H335.647V180ZM344.569 171.648C346.099 171.648 347.305 172.62 347.341 174.15H341.851C342.067 172.584 343.183 171.648 344.569 171.648ZM349.213 177.048H346.999C346.621 177.822 345.919 178.434 344.659 178.434C343.147 178.434 341.977 177.444 341.833 175.806H349.411C349.465 175.464 349.483 175.14 349.483 174.798C349.483 171.882 347.485 169.92 344.659 169.92C341.725 169.92 339.709 171.918 339.709 175.032C339.709 178.146 341.815 180.162 344.659 180.162C347.089 180.162 348.655 178.776 349.213 177.048Z" fill="#5E6282"/>
<path d="M471.693 46.608C471.693 51.018 474.759 54.105 479.106 54.105C482.613 54.105 485.259 52.152 486.099 48.96H482.151C481.542 50.22 480.429 50.85 479.064 50.85C476.859 50.85 475.347 49.212 475.347 46.608C475.347 44.004 476.859 42.366 479.064 42.366C480.429 42.366 481.542 42.996 482.151 44.256H486.099C485.259 41.064 482.613 39.09 479.106 39.09C474.759 39.09 471.693 42.198 471.693 46.608ZM499.764 48.141C499.764 44.424 497.118 42.114 493.674 42.114C490.251 42.114 487.584 44.424 487.584 48.141C487.584 51.858 490.188 54.168 493.632 54.168C497.076 54.168 499.764 51.858 499.764 48.141ZM491.238 48.141C491.238 46.146 492.372 45.222 493.674 45.222C494.934 45.222 496.11 46.146 496.11 48.141C496.11 50.115 494.913 51.06 493.632 51.06C492.33 51.06 491.238 50.115 491.238 48.141ZM509.754 54H513.324V47.154C513.324 44.004 511.518 42.156 508.809 42.156C507.234 42.156 505.974 42.849 505.26 43.836V42.282H501.669V54H505.26V47.637C505.26 46.041 506.142 45.159 507.507 45.159C508.872 45.159 509.754 46.041 509.754 47.637V54ZM516.387 49.926C516.387 52.971 518.088 54 520.524 54H522.351V50.955H521.07C520.272 50.955 519.978 50.661 519.978 49.968V45.264H522.33V42.282H519.978V39.426H516.387V42.282H514.959V45.264H516.387V49.926ZM523.637 48.12C523.637 51.816 525.926 54.168 528.782 54.168C530.525 54.168 531.764 53.37 532.415 52.341V54H536.006V42.282H532.415V43.941C531.785 42.912 530.546 42.114 528.803 42.114C525.926 42.114 523.637 44.424 523.637 48.12ZM532.415 48.141C532.415 50.01 531.218 51.039 529.853 51.039C528.509 51.039 527.291 49.989 527.291 48.12C527.291 46.251 528.509 45.243 529.853 45.243C531.218 45.243 532.415 46.272 532.415 48.141ZM537.89 48.141C537.89 51.858 540.326 54.168 543.77 54.168C546.71 54.168 548.789 52.467 549.398 49.758H545.576C545.261 50.619 544.694 51.102 543.707 51.102C542.426 51.102 541.544 50.094 541.544 48.141C541.544 46.188 542.426 45.18 543.707 45.18C544.694 45.18 545.282 45.705 545.576 46.524H549.398C548.789 43.731 546.71 42.114 543.77 42.114C540.326 42.114 537.89 44.445 537.89 48.141ZM551.886 49.926C551.886 52.971 553.587 54 556.023 54H557.85V50.955H556.569C555.771 50.955 555.477 50.661 555.477 49.968V45.264H557.829V42.282H555.477V39.426H551.886V42.282H550.458V45.264H551.886V49.926Z" fill="#080809"/>
<path d="M479.288 109H481.34V96.49H479.288V101.854H473.402V96.49H471.35V109H473.402V103.528H479.288V109ZM488.217 100.648C489.747 100.648 490.953 101.62 490.989 103.15H485.499C485.715 101.584 486.831 100.648 488.217 100.648ZM492.861 106.048H490.647C490.269 106.822 489.567 107.434 488.307 107.434C486.795 107.434 485.625 106.444 485.481 104.806H493.059C493.113 104.464 493.131 104.14 493.131 103.798C493.131 100.882 491.133 98.92 488.307 98.92C485.373 98.92 483.357 100.918 483.357 104.032C483.357 107.146 485.463 109.162 488.307 109.162C490.737 109.162 492.303 107.776 492.861 106.048ZM495.151 109H497.203V95.68H495.151V109ZM501.949 100.54V99.082H499.897V113.716H501.949V107.56C502.597 108.334 503.767 109.162 505.405 109.162C508.015 109.162 510.067 107.056 510.067 103.996C510.067 100.936 508.015 98.92 505.405 98.92C503.785 98.92 502.579 99.712 501.949 100.54ZM507.979 103.996C507.979 106.138 506.503 107.38 504.955 107.38C503.425 107.38 501.949 106.174 501.949 104.032C501.949 101.908 503.425 100.702 504.955 100.702C506.503 100.702 507.979 101.854 507.979 103.996ZM511.844 112.15H513.86L518.756 92.008H516.722L511.844 112.15ZM521.342 109H523.394V103.528H527.534V101.854H523.394V98.164H528.704V96.49H521.342V109ZM539.048 109H541.208L536.726 96.472H534.35L529.868 109H532.01L532.91 106.444H538.148L539.048 109ZM537.572 104.77H533.486L535.538 98.956L537.572 104.77ZM544.579 102.718C544.579 99.892 546.379 98.128 548.863 98.128C551.347 98.128 553.147 99.892 553.147 102.718C553.147 105.544 551.347 107.344 548.863 107.344C546.379 107.344 544.579 105.544 544.579 102.718ZM555.253 102.718C555.253 98.974 552.427 96.328 548.863 96.328C545.335 96.328 542.473 98.974 542.473 102.718C542.473 106.48 545.335 109.126 548.863 109.126C549.493 109.126 550.087 109.054 550.645 108.892L552.841 111.268H555.451L552.445 108.082C554.155 106.984 555.253 105.076 555.253 102.718Z" fill="#5E6282"/>
<path d="M473.402 138.25V134.164H475.67C477.272 134.164 477.992 134.92 477.992 136.216C477.992 137.476 477.272 138.25 475.67 138.25H473.402ZM480.098 136.216C480.098 134.182 478.64 132.49 475.67 132.49H471.35V145H473.402V139.924H475.67C478.928 139.924 480.098 137.998 480.098 136.216ZM484.107 139.78C484.107 137.674 485.043 137.044 486.555 137.044H487.077V134.92C485.673 134.92 484.683 135.532 484.107 136.522V135.082H482.055V145H484.107V139.78ZM493.139 136.648C494.669 136.648 495.875 137.62 495.911 139.15H490.421C490.637 137.584 491.753 136.648 493.139 136.648ZM497.783 142.048H495.569C495.191 142.822 494.489 143.434 493.229 143.434C491.717 143.434 490.547 142.444 490.403 140.806H497.981C498.035 140.464 498.053 140.14 498.053 139.798C498.053 136.882 496.055 134.92 493.229 134.92C490.295 134.92 488.279 136.918 488.279 140.032C488.279 143.146 490.385 145.162 493.229 145.162C495.659 145.162 497.225 143.776 497.783 142.048ZM507.471 142.228C507.363 138.646 501.765 139.762 501.765 137.764C501.765 137.098 502.341 136.648 503.439 136.648C504.555 136.648 505.221 137.242 505.293 138.106H507.345C507.237 136.126 505.761 134.92 503.511 134.92C501.171 134.92 499.695 136.198 499.695 137.782C499.695 141.418 505.455 140.302 505.455 142.246C505.455 142.93 504.825 143.434 503.637 143.434C502.503 143.434 501.729 142.768 501.657 141.958H499.533C499.623 143.758 501.297 145.162 503.673 145.162C506.013 145.162 507.471 143.902 507.471 142.228ZM517.086 142.228C516.978 138.646 511.38 139.762 511.38 137.764C511.38 137.098 511.956 136.648 513.054 136.648C514.17 136.648 514.836 137.242 514.908 138.106H516.96C516.852 136.126 515.376 134.92 513.126 134.92C510.786 134.92 509.31 136.198 509.31 137.782C509.31 141.418 515.07 140.302 515.07 142.246C515.07 142.93 514.44 143.434 513.252 143.434C512.118 143.434 511.344 142.768 511.272 141.958H509.148C509.238 143.758 510.912 145.162 513.288 145.162C515.628 145.162 517.086 143.902 517.086 142.228Z" fill="#5E6282"/>
<path d="M479.792 180H481.952L477.47 167.472H475.094L470.612 180H472.754L473.654 177.444H478.892L479.792 180ZM478.316 175.77H474.23L476.282 169.956L478.316 175.77ZM484.153 180H486.223V171.756H488.059V170.082H486.223V169.38C486.223 168.246 486.655 167.814 487.915 167.814V166.104C485.323 166.104 484.153 167.094 484.153 169.38V170.082H482.983V171.756H484.153V180ZM490.129 180H492.199V171.756H494.035V170.082H492.199V169.38C492.199 168.246 492.631 167.814 493.891 167.814V166.104C491.299 166.104 490.129 167.094 490.129 169.38V170.082H488.959V171.756H490.129V180ZM495.854 180H497.906V170.082H495.854V180ZM496.898 168.768C497.618 168.768 498.194 168.192 498.194 167.454C498.194 166.716 497.618 166.14 496.898 166.14C496.16 166.14 495.584 166.716 495.584 167.454C495.584 168.192 496.16 168.768 496.898 168.768ZM500.6 180H502.652V166.68H500.6V180ZM504.662 174.996C504.662 178.056 506.732 180.162 509.306 180.162C510.962 180.162 512.15 179.37 512.78 178.524V180H514.85V170.082H512.78V171.522C512.168 170.712 511.016 169.92 509.342 169.92C506.732 169.92 504.662 171.936 504.662 174.996ZM512.78 175.032C512.78 177.174 511.322 178.38 509.774 178.38C508.244 178.38 506.768 177.138 506.768 174.996C506.768 172.854 508.244 171.702 509.774 171.702C511.322 171.702 512.78 172.908 512.78 175.032ZM517.869 177.246C517.869 179.262 518.967 180 520.731 180H522.351V178.29H521.091C520.227 178.29 519.939 177.984 519.939 177.246V171.756H522.351V170.082H519.939V167.616H517.869V170.082H516.699V171.756H517.869V177.246ZM528.419 171.648C529.949 171.648 531.155 172.62 531.191 174.15H525.701C525.917 172.584 527.033 171.648 528.419 171.648ZM533.063 177.048H530.849C530.471 177.822 529.769 178.434 528.509 178.434C526.997 178.434 525.827 177.444 525.683 175.806H533.261C533.315 175.464 533.333 175.14 533.333 174.798C533.333 171.882 531.335 169.92 528.509 169.92C525.575 169.92 523.559 171.918 523.559 175.032C523.559 178.146 525.665 180.162 528.509 180.162C530.939 180.162 532.505 178.776 533.063 177.048ZM542.75 177.228C542.642 173.646 537.044 174.762 537.044 172.764C537.044 172.098 537.62 171.648 538.718 171.648C539.834 171.648 540.5 172.242 540.572 173.106H542.624C542.516 171.126 541.04 169.92 538.79 169.92C536.45 169.92 534.974 171.198 534.974 172.782C534.974 176.418 540.734 175.302 540.734 177.246C540.734 177.93 540.104 178.434 538.916 178.434C537.782 178.434 537.008 177.768 536.936 176.958H534.812C534.902 178.758 536.576 180.162 538.952 180.162C541.292 180.162 542.75 178.902 542.75 177.228Z" fill="#5E6282"/>
<path d="M651.302 54H654.893V45.138L658.211 54H661.109L664.406 45.159V54H667.997V39.258H663.776L659.681 49.464L655.544 39.258H651.302V54ZM682.045 48.141C682.045 44.424 679.399 42.114 675.955 42.114C672.532 42.114 669.865 44.424 669.865 48.141C669.865 51.858 672.469 54.168 675.913 54.168C679.357 54.168 682.045 51.858 682.045 48.141ZM673.519 48.141C673.519 46.146 674.653 45.222 675.955 45.222C677.215 45.222 678.391 46.146 678.391 48.141C678.391 50.115 677.194 51.06 675.913 51.06C674.611 51.06 673.519 50.115 673.519 48.141ZM687.541 48.561C687.541 46.545 688.528 45.957 690.229 45.957H691.216V42.156C689.641 42.156 688.36 42.996 687.541 44.235V42.282H683.95V54H687.541V48.561ZM698.099 44.991C699.296 44.991 700.304 45.726 700.304 47.007H695.81C696.02 45.705 696.923 44.991 698.099 44.991ZM703.706 50.115H699.884C699.59 50.745 699.023 51.249 698.015 51.249C696.86 51.249 695.915 50.535 695.789 49.002H703.916C703.958 48.645 703.979 48.288 703.979 47.952C703.979 44.382 701.564 42.114 698.141 42.114C694.655 42.114 692.219 44.424 692.219 48.141C692.219 51.858 694.697 54.168 698.141 54.168C701.06 54.168 703.139 52.404 703.706 50.115Z" fill="#080809"/>
<path d="M659.792 111H661.952L657.47 98.472H655.094L650.612 111H652.754L653.654 108.444H658.892L659.792 111ZM658.316 106.77H654.23L656.282 100.956L658.316 106.77ZM663.901 111H665.953V101.082H663.901V111ZM664.945 99.768C665.665 99.768 666.241 99.192 666.241 98.454C666.241 97.716 665.665 97.14 664.945 97.14C664.207 97.14 663.631 97.716 663.631 98.454C663.631 99.192 664.207 99.768 664.945 99.768ZM670.699 105.78C670.699 103.674 671.635 103.044 673.147 103.044H673.669V100.92C672.265 100.92 671.275 101.532 670.699 102.522V101.082H668.647V111H670.699V105.78ZM675.555 111H677.607V97.68H675.555V111ZM680.301 111H682.353V101.082H680.301V111ZM681.345 99.768C682.065 99.768 682.641 99.192 682.641 98.454C682.641 97.716 682.065 97.14 681.345 97.14C680.607 97.14 680.031 97.716 680.031 98.454C680.031 99.192 680.607 99.768 681.345 99.768ZM692.085 111H694.119V105.15C694.119 102.378 692.373 100.92 690.051 100.92C688.863 100.92 687.765 101.406 687.099 102.216V101.082H685.047V111H687.099V105.456C687.099 103.638 688.089 102.702 689.601 102.702C691.095 102.702 692.085 103.638 692.085 105.456V111ZM700.913 102.648C702.443 102.648 703.649 103.62 703.685 105.15H698.195C698.411 103.584 699.527 102.648 700.913 102.648ZM705.557 108.048H703.343C702.965 108.822 702.263 109.434 701.003 109.434C699.491 109.434 698.321 108.444 698.177 106.806H705.755C705.809 106.464 705.827 106.14 705.827 105.798C705.827 102.882 703.829 100.92 701.003 100.92C698.069 100.92 696.053 102.918 696.053 106.032C696.053 109.146 698.159 111.162 701.003 111.162C703.433 111.162 704.999 109.776 705.557 108.048ZM708.098 111H710.168V102.756H712.004V101.082H710.168V100.38C710.168 99.246 710.6 98.814 711.86 98.814V97.104C709.268 97.104 708.098 98.094 708.098 100.38V101.082H706.928V102.756H708.098V111ZM717.999 102.648C719.529 102.648 720.735 103.62 720.771 105.15H715.281C715.497 103.584 716.613 102.648 717.999 102.648ZM722.643 108.048H720.429C720.051 108.822 719.349 109.434 718.089 109.434C716.577 109.434 715.407 108.444 715.263 106.806H722.841C722.895 106.464 722.913 106.14 722.913 105.798C722.913 102.882 720.915 100.92 718.089 100.92C715.155 100.92 713.139 102.918 713.139 106.032C713.139 109.146 715.245 111.162 718.089 111.162C720.519 111.162 722.085 109.776 722.643 108.048ZM729.108 102.648C730.638 102.648 731.844 103.62 731.88 105.15H726.39C726.606 103.584 727.722 102.648 729.108 102.648ZM733.752 108.048H731.538C731.16 108.822 730.458 109.434 729.198 109.434C727.686 109.434 726.516 108.444 726.372 106.806H733.95C734.004 106.464 734.022 106.14 734.022 105.798C734.022 102.882 732.024 100.92 729.198 100.92C726.264 100.92 724.248 102.918 724.248 106.032C724.248 109.146 726.354 111.162 729.198 111.162C731.628 111.162 733.194 109.776 733.752 108.048ZM743.439 108.228C743.331 104.646 737.733 105.762 737.733 103.764C737.733 103.098 738.309 102.648 739.407 102.648C740.523 102.648 741.189 103.242 741.261 104.106H743.313C743.205 102.126 741.729 100.92 739.479 100.92C737.139 100.92 735.663 102.198 735.663 103.782C735.663 107.418 741.423 106.302 741.423 108.246C741.423 108.93 740.793 109.434 739.605 109.434C738.471 109.434 737.697 108.768 737.625 107.958H735.501C735.591 109.758 737.265 111.162 739.641 111.162C741.981 111.162 743.439 109.902 743.439 108.228Z" fill="#5E6282"/>
<path d="M659.792 147H661.952L657.47 134.472H655.094L650.612 147H652.754L653.654 144.444H658.892L659.792 147ZM658.316 142.77H654.23L656.282 136.956L658.316 142.77ZM663.901 147H665.953V137.082H663.901V147ZM664.945 135.768C665.665 135.768 666.241 135.192 666.241 134.454C666.241 133.716 665.665 133.14 664.945 133.14C664.207 133.14 663.631 133.716 663.631 134.454C663.631 135.192 664.207 135.768 664.945 135.768ZM670.699 141.78C670.699 139.674 671.635 139.044 673.147 139.044H673.669V136.92C672.265 136.92 671.275 137.532 670.699 138.522V137.082H668.647V147H670.699V141.78ZM675.555 147H677.607V133.68H675.555V147ZM680.301 147H682.353V137.082H680.301V147ZM681.345 135.768C682.065 135.768 682.641 135.192 682.641 134.454C682.641 133.716 682.065 133.14 681.345 133.14C680.607 133.14 680.031 133.716 680.031 134.454C680.031 135.192 680.607 135.768 681.345 135.768ZM692.085 147H694.119V141.15C694.119 138.378 692.373 136.92 690.051 136.92C688.863 136.92 687.765 137.406 687.099 138.216V137.082H685.047V147H687.099V141.456C687.099 139.638 688.089 138.702 689.601 138.702C691.095 138.702 692.085 139.638 692.085 141.456V147ZM700.913 138.648C702.443 138.648 703.649 139.62 703.685 141.15H698.195C698.411 139.584 699.527 138.648 700.913 138.648ZM705.557 144.048H703.343C702.965 144.822 702.263 145.434 701.003 145.434C699.491 145.434 698.321 144.444 698.177 142.806H705.755C705.809 142.464 705.827 142.14 705.827 141.798C705.827 138.882 703.829 136.92 701.003 136.92C698.069 136.92 696.053 138.918 696.053 142.032C696.053 145.146 698.159 147.162 701.003 147.162C703.433 147.162 704.999 145.776 705.557 144.048Z" fill="#5E6282"/>
<path d="M651.35 169.49V182H657.632V180.344H653.402V169.49H651.35ZM668.798 177.032C668.798 173.918 666.566 171.92 663.74 171.92C660.914 171.92 658.682 173.918 658.682 177.032C658.682 180.146 660.824 182.162 663.65 182.162C666.494 182.162 668.798 180.146 668.798 177.032ZM660.77 177.032C660.77 174.782 662.156 173.702 663.704 173.702C665.234 173.702 666.692 174.782 666.692 177.032C666.692 179.282 665.18 180.38 663.65 180.38C662.102 180.38 660.77 179.282 660.77 177.032ZM672.753 182H674.913L676.911 174.674L678.909 182H681.069L684.147 172.082H682.131L680.079 180.02L678.063 172.082H675.921L673.815 180.056L671.745 172.082H669.657L672.753 182ZM690.608 182H692.678V173.756H694.514V172.082H692.678V171.38C692.678 170.246 693.11 169.814 694.37 169.814V168.104C691.778 168.104 690.608 169.094 690.608 171.38V172.082H689.438V173.756H690.608V182ZM695.648 176.996C695.648 180.056 697.718 182.162 700.292 182.162C701.948 182.162 703.136 181.37 703.766 180.524V182H705.836V172.082H703.766V173.522C703.154 172.712 702.002 171.92 700.328 171.92C697.718 171.92 695.648 173.936 695.648 176.996ZM703.766 177.032C703.766 179.174 702.308 180.38 700.76 180.38C699.23 180.38 697.754 179.138 697.754 176.996C697.754 174.854 699.23 173.702 700.76 173.702C702.308 173.702 703.766 174.908 703.766 177.032ZM710.584 176.78C710.584 174.674 711.52 174.044 713.032 174.044H713.554V171.92C712.15 171.92 711.16 172.532 710.584 173.522V172.082H708.532V182H710.584V176.78ZM719.616 173.648C721.146 173.648 722.352 174.62 722.388 176.15H716.898C717.114 174.584 718.23 173.648 719.616 173.648ZM724.26 179.048H722.046C721.668 179.822 720.966 180.434 719.706 180.434C718.194 180.434 717.024 179.444 716.88 177.806H724.458C724.512 177.464 724.53 177.14 724.53 176.798C724.53 173.882 722.532 171.92 719.706 171.92C716.772 171.92 714.756 173.918 714.756 177.032C714.756 180.146 716.862 182.162 719.706 182.162C722.136 182.162 723.702 180.776 724.26 179.048ZM731.549 179.246C731.549 181.262 732.647 182 734.411 182H736.031V180.29H734.771C733.907 180.29 733.619 179.984 733.619 179.246V173.756H736.031V172.082H733.619V169.616H731.549V172.082H730.379V173.756H731.549V179.246ZM737.922 182H739.974V172.082H737.922V182ZM738.966 170.768C739.686 170.768 740.262 170.192 740.262 169.454C740.262 168.716 739.686 168.14 738.966 168.14C738.228 168.14 737.652 168.716 737.652 169.454C737.652 170.192 738.228 170.768 738.966 170.768ZM744.72 173.54V172.082H742.668V186.716H744.72V180.56C745.368 181.334 746.538 182.162 748.176 182.162C750.786 182.162 752.838 180.056 752.838 176.996C752.838 173.936 750.786 171.92 748.176 171.92C746.556 171.92 745.35 172.712 744.72 173.54ZM750.75 176.996C750.75 179.138 749.274 180.38 747.726 180.38C746.196 180.38 744.72 179.174 744.72 177.032C744.72 174.908 746.196 173.702 747.726 173.702C749.274 173.702 750.75 174.854 750.75 176.996ZM762.266 179.228C762.158 175.646 756.56 176.762 756.56 174.764C756.56 174.098 757.136 173.648 758.234 173.648C759.35 173.648 760.016 174.242 760.088 175.106H762.14C762.032 173.126 760.556 171.92 758.306 171.92C755.966 171.92 754.49 173.198 754.49 174.782C754.49 178.418 760.25 177.302 760.25 179.246C760.25 179.93 759.62 180.434 758.432 180.434C757.298 180.434 756.524 179.768 756.452 178.958H754.328C754.418 180.758 756.092 182.162 758.468 182.162C760.808 182.162 762.266 180.902 762.266 179.228Z" fill="#5E6282"/>
<path d="M437.616 284H439.296L435.81 274.256H433.962L430.476 284H432.142L432.842 282.012H436.916L437.616 284ZM436.468 280.71H433.29L434.886 276.188L436.468 280.71ZM440.812 284H442.408V273.64H440.812V284ZM444.503 284H446.099V273.64H444.503V284ZM453.427 279.94C453.427 278.302 454.155 277.812 455.331 277.812H455.737V276.16C454.645 276.16 453.875 276.636 453.427 277.406V276.286H451.831V284H453.427V279.94ZM457.204 284H458.8V276.286H457.204V284ZM458.016 275.264C458.576 275.264 459.024 274.816 459.024 274.242C459.024 273.668 458.576 273.22 458.016 273.22C457.442 273.22 456.994 273.668 456.994 274.242C456.994 274.816 457.442 275.264 458.016 275.264ZM460.364 280.108C460.364 282.488 461.974 284.126 464.004 284.126C465.264 284.126 466.188 283.496 466.678 282.838V284.126C466.678 285.666 465.754 286.422 464.522 286.422C463.416 286.422 462.562 285.876 462.324 285.078H460.742C460.938 286.786 462.464 287.808 464.522 287.808C466.93 287.808 468.288 286.226 468.288 284.126V276.286H466.678V277.406C466.202 276.748 465.264 276.16 464.004 276.16C461.974 276.16 460.364 277.728 460.364 280.108ZM466.678 280.136C466.678 281.802 465.544 282.74 464.34 282.74C463.15 282.74 462.002 281.774 462.002 280.108C462.002 278.442 463.15 277.546 464.34 277.546C465.544 277.546 466.678 278.484 466.678 280.136ZM470.384 284H471.98V279.688C471.98 278.274 472.75 277.546 473.926 277.546C475.088 277.546 475.858 278.274 475.858 279.688V284H477.44V279.45C477.44 277.294 476.096 276.16 474.374 276.16C473.38 276.16 472.512 276.538 471.98 277.182V273.64H470.384V284ZM479.728 281.858C479.728 283.426 480.582 284 481.954 284H483.214V282.67H482.234C481.562 282.67 481.338 282.432 481.338 281.858V277.588H483.214V276.286H481.338V274.368H479.728V276.286H478.818V277.588H479.728V281.858ZM490.439 281.844C490.355 279.058 486.001 279.926 486.001 278.372C486.001 277.854 486.449 277.504 487.303 277.504C488.171 277.504 488.689 277.966 488.745 278.638H490.341C490.257 277.098 489.109 276.16 487.359 276.16C485.539 276.16 484.391 277.154 484.391 278.386C484.391 281.214 488.871 280.346 488.871 281.858C488.871 282.39 488.381 282.782 487.457 282.782C486.575 282.782 485.973 282.264 485.917 281.634H484.265C484.335 283.034 485.637 284.126 487.485 284.126C489.305 284.126 490.439 283.146 490.439 281.844ZM497.396 279.94C497.396 278.302 498.124 277.812 499.3 277.812H499.706V276.16C498.614 276.16 497.844 276.636 497.396 277.406V276.286H495.8V284H497.396V279.94ZM504.421 277.504C505.611 277.504 506.549 278.26 506.577 279.45H502.307C502.475 278.232 503.343 277.504 504.421 277.504ZM508.033 281.704H506.311C506.017 282.306 505.471 282.782 504.491 282.782C503.315 282.782 502.405 282.012 502.293 280.738H508.187C508.229 280.472 508.243 280.22 508.243 279.954C508.243 277.686 506.689 276.16 504.491 276.16C502.209 276.16 500.641 277.714 500.641 280.136C500.641 282.558 502.279 284.126 504.491 284.126C506.381 284.126 507.599 283.048 508.033 281.704ZM515.568 281.844C515.484 279.058 511.13 279.926 511.13 278.372C511.13 277.854 511.578 277.504 512.432 277.504C513.3 277.504 513.818 277.966 513.874 278.638H515.47C515.386 277.098 514.238 276.16 512.488 276.16C510.668 276.16 509.52 277.154 509.52 278.386C509.52 281.214 514 280.346 514 281.858C514 282.39 513.51 282.782 512.586 282.782C511.704 282.782 511.102 282.264 511.046 281.634H509.394C509.464 283.034 510.766 284.126 512.614 284.126C514.434 284.126 515.568 283.146 515.568 281.844ZM520.54 277.504C521.73 277.504 522.668 278.26 522.696 279.45H518.426C518.594 278.232 519.462 277.504 520.54 277.504ZM524.152 281.704H522.43C522.136 282.306 521.59 282.782 520.61 282.782C519.434 282.782 518.524 282.012 518.412 280.738H524.306C524.348 280.472 524.362 280.22 524.362 279.954C524.362 277.686 522.808 276.16 520.61 276.16C518.328 276.16 516.76 277.714 516.76 280.136C516.76 282.558 518.398 284.126 520.61 284.126C522.5 284.126 523.718 283.048 524.152 281.704ZM527.529 279.94C527.529 278.302 528.257 277.812 529.433 277.812H529.839V276.16C528.747 276.16 527.977 276.636 527.529 277.406V276.286H525.933V284H527.529V279.94ZM530.396 276.286L533.322 284H535.226L538.166 276.286H536.472L534.288 282.572L532.104 276.286H530.396ZM542.62 277.504C543.81 277.504 544.748 278.26 544.776 279.45H540.506C540.674 278.232 541.542 277.504 542.62 277.504ZM546.232 281.704H544.51C544.216 282.306 543.67 282.782 542.69 282.782C541.514 282.782 540.604 282.012 540.492 280.738H546.386C546.428 280.472 546.442 280.22 546.442 279.954C546.442 277.686 544.888 276.16 542.69 276.16C540.408 276.16 538.84 277.714 538.84 280.136C538.84 282.558 540.478 284.126 542.69 284.126C544.58 284.126 545.798 283.048 546.232 281.704ZM547.481 280.108C547.481 282.488 549.091 284.126 551.121 284.126C552.381 284.126 553.305 283.538 553.795 282.838V284H555.405V273.64H553.795V277.364C553.207 276.636 552.143 276.16 551.135 276.16C549.091 276.16 547.481 277.728 547.481 280.108ZM553.795 280.136C553.795 281.802 552.661 282.74 551.457 282.74C550.267 282.74 549.119 281.774 549.119 280.108C549.119 278.442 550.267 277.546 551.457 277.546C552.661 277.546 553.795 278.484 553.795 280.136ZM566.629 284.098C568.673 284.098 569.821 281.816 569.821 279.646C569.821 276.86 567.931 274.956 564.683 274.956C560.441 274.956 557.431 278.134 557.431 282.18C557.431 285.022 559.433 286.842 562.513 286.842C563.521 286.842 564.487 286.674 565.369 286.296L565.159 285.232C564.445 285.582 563.591 285.722 562.835 285.722C560.231 285.722 558.733 284.462 558.733 282.054C558.733 278.652 561.141 276.062 564.487 276.062C567.119 276.062 568.533 277.35 568.533 279.716C568.533 281.06 568.015 283.034 566.867 283.034C566.167 283.034 566.125 282.544 566.237 281.788L566.937 277.784H565.551L565.425 278.484C565.103 277.938 564.543 277.658 563.717 277.658C561.659 277.658 560.245 279.562 560.245 281.676C560.245 283.146 561.085 284.098 562.541 284.098C563.507 284.098 564.431 283.622 565.005 282.894C565.131 283.636 565.663 284.098 566.629 284.098ZM565.145 280.402C565.145 281.69 564.235 282.866 563.031 282.866C562.121 282.866 561.729 282.264 561.729 281.438C561.729 280.178 562.471 278.876 563.731 278.876C564.669 278.876 565.145 279.548 565.145 280.402ZM572.669 275.264C573.229 275.264 573.677 274.816 573.677 274.242C573.677 273.668 573.229 273.22 572.669 273.22C572.095 273.22 571.647 273.668 571.647 274.242C571.647 274.816 572.095 275.264 572.669 275.264ZM571.857 276.286V285.512C571.857 286.086 571.633 286.324 570.961 286.324H570.415V287.668H571.241C572.613 287.668 573.453 287.08 573.453 285.512V276.286H571.857ZM575.016 280.108C575.016 282.488 576.626 284.126 578.628 284.126C579.916 284.126 580.84 283.51 581.33 282.852V284H582.94V276.286H581.33V277.406C580.854 276.776 579.958 276.16 578.656 276.16C576.626 276.16 575.016 277.728 575.016 280.108ZM581.33 280.136C581.33 281.802 580.196 282.74 578.992 282.74C577.802 282.74 576.654 281.774 576.654 280.108C576.654 278.442 577.802 277.546 578.992 277.546C580.196 277.546 581.33 278.484 581.33 280.136ZM584.504 280.108C584.504 282.488 586.114 284.126 588.144 284.126C589.404 284.126 590.328 283.538 590.818 282.838V284H592.428V273.64H590.818V277.364C590.23 276.636 589.166 276.16 588.158 276.16C586.114 276.16 584.504 277.728 584.504 280.108ZM590.818 280.136C590.818 281.802 589.684 282.74 588.48 282.74C587.29 282.74 586.142 281.774 586.142 280.108C586.142 278.442 587.29 277.546 588.48 277.546C589.684 277.546 590.818 278.484 590.818 280.136ZM601.875 280.136C601.875 277.714 600.139 276.16 597.941 276.16C595.743 276.16 594.007 277.714 594.007 280.136C594.007 282.558 595.673 284.126 597.871 284.126C600.083 284.126 601.875 282.558 601.875 280.136ZM595.631 280.136C595.631 278.386 596.709 277.546 597.913 277.546C599.103 277.546 600.237 278.386 600.237 280.136C600.237 281.886 599.061 282.74 597.871 282.74C596.667 282.74 595.631 281.886 595.631 280.136ZM610.802 280.136C610.802 277.714 609.066 276.16 606.868 276.16C604.67 276.16 602.934 277.714 602.934 280.136C602.934 282.558 604.6 284.126 606.798 284.126C609.01 284.126 610.802 282.558 610.802 280.136ZM604.558 280.136C604.558 278.386 605.636 277.546 606.84 277.546C608.03 277.546 609.164 278.386 609.164 280.136C609.164 281.886 607.988 282.74 606.798 282.74C605.594 282.74 604.558 281.886 604.558 280.136ZM614.032 283.076C614.032 282.502 613.584 282.054 613.024 282.054C612.45 282.054 612.002 282.502 612.002 283.076C612.002 283.65 612.45 284.098 613.024 284.098C613.584 284.098 614.032 283.65 614.032 283.076ZM615.225 280.136C615.225 282.558 616.793 284.126 619.005 284.126C620.895 284.126 622.127 283.076 622.561 281.564H620.839C620.545 282.362 619.957 282.782 619.005 282.782C617.717 282.782 616.863 281.83 616.863 280.136C616.863 278.456 617.717 277.504 619.005 277.504C619.957 277.504 620.573 277.98 620.839 278.722H622.561C622.127 277.098 620.895 276.16 619.005 276.16C616.793 276.16 615.225 277.728 615.225 280.136ZM631.502 280.136C631.502 277.714 629.766 276.16 627.568 276.16C625.37 276.16 623.634 277.714 623.634 280.136C623.634 282.558 625.3 284.126 627.498 284.126C629.71 284.126 631.502 282.558 631.502 280.136ZM625.258 280.136C625.258 278.386 626.336 277.546 627.54 277.546C628.73 277.546 629.864 278.386 629.864 280.136C629.864 281.886 628.688 282.74 627.498 282.74C626.294 282.74 625.258 281.886 625.258 280.136Z" fill="#5E6282"/>
<defs>
<filter id="filter0_f_1_501" x="989" y="0" width="778.945" height="796.864" filterUnits="userSpaceOnUse" color-interpolation-filters="sRGB">
<feFlood flood-opacity="0" result="BackgroundImageFix"/>
<feBlend mode="normal" in="SourceGraphic" in2="BackgroundImageFix" result="shape"/>
<feGaussianBlur stdDeviation="75" result="effect1_foregroundBlur_1_501"/>
</filter>
<filter id="filter1_d_1_501" x="974" y="28" width="61" height="61" filterUnits="userSpaceOnUse" color-interpolation-filters="sRGB">
<feFlood flood-opacity="0" result="BackgroundImageFix"/>
<feColorMatrix in="SourceAlpha" type="matrix" values="0 0 0 0 0 0 0 0 0 0 0 0 0 0 0 0 0 0 127 0" result="hardAlpha"/>
<feOffset dy="2"/>
<feGaussianBlur stdDeviation="5"/>
<feColorMatrix type="matrix" values="0 0 0 0 0 0 0 0 0 0 0 0 0 0 0 0 0 0 0.1 0"/>
<feBlend mode="normal" in2="BackgroundImageFix" result="effect1_dropShadow_1_501"/>
<feBlend mode="normal" in="SourceGraphic" in2="effect1_dropShadow_1_501" result="shape"/>
</filter>
<filter id="filter2_d_1_501" x="838" y="26" width="61" height="61" filterUnits="userSpaceOnUse" color-interpolation-filters="sRGB">
<feFlood flood-opacity="0" result="BackgroundImageFix"/>
<feColorMatrix in="SourceAlpha" type="matrix" values="0 0 0 0 0 0 0 0 0 0 0 0 0 0 0 0 0 0 127 0" result="hardAlpha"/>
<feOffset dy="2"/>
<feGaussianBlur stdDeviation="5"/>
<feColorMatrix type="matrix" values="0 0 0 0 0 0 0 0 0 0 0 0 0 0 0 0 0 0 0.1 0"/>
<feBlend mode="normal" in2="BackgroundImageFix" result="effect1_dropShadow_1_501"/>
<feBlend mode="normal" in="SourceGraphic" in2="effect1_dropShadow_1_501" result="shape"/>
</filter>
<filter id="filter3_d_1_501" x="904" y="26" width="65" height="65" filterUnits="userSpaceOnUse" color-interpolation-filters="sRGB">
<feFlood flood-opacity="0" result="BackgroundImageFix"/>
<feColorMatrix in="SourceAlpha" type="matrix" values="0 0 0 0 0 0 0 0 0 0 0 0 0 0 0 0 0 0 127 0" result="hardAlpha"/>
<feOffset dy="2"/>
<feGaussianBlur stdDeviation="5"/>
<feColorMatrix type="matrix" values="0 0 0 0 0 0 0 0 0 0 0 0 0 0 0 0 0 0 0.1 0"/>
<feBlend mode="normal" in2="BackgroundImageFix" result="effect1_dropShadow_1_501"/>
<feBlend mode="normal" in="SourceGraphic" in2="effect1_dropShadow_1_501" result="shape"/>
</filter>
<radialGradient id="paint0_angular_1_501" cx="0" cy="0" r="1" gradientUnits="userSpaceOnUse" gradientTransform="translate(936.5 56.5) rotate(90) scale(0.5)">
<stop stop-color="#B8D2F1"/>
<stop offset="0.166667" stop-color="#F289AA"/>
<stop offset="0.294697" stop-color="#C68BF0"/>
<stop offset="0.427083" stop-color="#D164DA"/>
<stop offset="0.614583" stop-color="#C963E8"/>
<stop offset="0.71875" stop-color="#BFC2E8"/>
<stop offset="0.802083" stop-color="#FFC999"/>
<stop offset="0.875" stop-color="#D0D8C9"/>
<stop offset="0.928149" stop-color="#BAD0F1"/>
<stop offset="0.997133" stop-color="#CED8CB"/>
<stop offset="1" stop-color="white" stop-opacity="0"/>
</radialGradient>
<clipPath id="clip0_1_501">
<rect width="16" height="16" fill="white" transform="translate(929 48)"/>
</clipPath>
<clipPath id="clip1_1_501">
<rect width="20" height="20" fill="white" transform="translate(863 153)"/>
</clipPath>
</defs>
</svg>
