<svg width="1356" height="490" viewBox="0 0 1356 490" fill="none" xmlns="http://www.w3.org/2000/svg">
<path d="M1210.2 476.61H1214.56V478.49H1210.2V483.432H1208.2V478.49H1203.84V476.61H1208.2V472.045H1210.2V476.61Z" fill="#E5E5E5"/>
<path d="M1245.2 441.61H1249.56V443.49H1245.2V448.432H1243.2V443.49H1238.84V441.61H1243.2V437.045H1245.2V441.61Z" fill="#E5E5E5"/>
<path d="M1280.2 336.61H1284.56V338.49H1280.2V343.432H1278.2V338.49H1273.84V336.61H1278.2V332.045H1280.2V336.61Z" fill="#E5E5E5"/>
<path d="M1280.2 371.61H1284.56V373.49H1280.2V378.432H1278.2V373.49H1273.84V371.61H1278.2V367.045H1280.2V371.61Z" fill="#E5E5E5"/>
<path d="M1280.2 406.61H1284.56V408.49H1280.2V413.432H1278.2V408.49H1273.84V406.61H1278.2V402.045H1280.2V406.61Z" fill="#6246E5"/>
<path d="M1280.2 441.61H1284.56V443.49H1280.2V448.432H1278.2V443.49H1273.84V441.61H1278.2V437.045H1280.2V441.61Z" fill="#E5E5E5"/>
<path d="M1280.2 476.61H1284.56V478.49H1280.2V483.432H1278.2V478.49H1273.84V476.61H1278.2V472.045H1280.2V476.61Z" fill="#E5E5E5"/>
<path d="M1315.2 336.61H1319.56V338.49H1315.2V343.432H1313.2V338.49H1308.84V336.61H1313.2V332.045H1315.2V336.61Z" fill="#E5E5E5"/>
<path d="M1315.2 371.61H1319.56V373.49H1315.2V378.432H1313.2V373.49H1308.84V371.61H1313.2V367.045H1315.2V371.61Z" fill="#E5E5E5"/>
<path d="M1315.2 406.61H1319.56V408.49H1315.2V413.432H1313.2V408.49H1308.84V406.61H1313.2V402.045H1315.2V406.61Z" fill="#E5E5E5"/>
<path d="M1315.2 441.61H1319.56V443.49H1315.2V448.432H1313.2V443.49H1308.84V441.61H1313.2V437.045H1315.2V441.61Z" fill="#E5E5E5"/>
<path d="M1315.2 476.61H1319.56V478.49H1315.2V483.432H1313.2V478.49H1308.84V476.61H1313.2V472.045H1315.2V476.61Z" fill="#E5E5E5"/>
<path d="M1350.2 336.61H1354.56V338.49H1350.2V343.432H1348.2V338.49H1343.84V336.61H1348.2V332.045H1350.2V336.61Z" fill="#FF7152"/>
<path d="M1350.2 371.61H1354.56V373.49H1350.2V378.432H1348.2V373.49H1343.84V371.61H1348.2V367.045H1350.2V371.61Z" fill="#E5E5E5"/>
<path d="M1350.2 406.61H1354.56V408.49H1350.2V413.432H1348.2V408.49H1343.84V406.61H1348.2V402.045H1350.2V406.61Z" fill="#E5E5E5"/>
<path d="M1350.2 441.61H1354.56V443.49H1350.2V448.432H1348.2V443.49H1343.84V441.61H1348.2V437.045H1350.2V441.61Z" fill="#E5E5E5"/>
<path d="M1350.2 476.61H1354.56V478.49H1350.2V483.432H1348.2V478.49H1343.84V476.61H1348.2V472.045H1350.2V476.61Z" fill="#E5E5E5"/>
<path opacity="0.2" d="M1257 33C1257 21.9543 1248.05 13 1237 13H216C144.755 13 87 70.7553 87 142V400C87 411.046 95.9543 420 107 420H1237C1248.05 420 1257 411.046 1257 400V33Z" fill="#DFD7F9"/>
<g opacity="0.1">
<mask id="mask0_1_440" style="mask-type:alpha" maskUnits="userSpaceOnUse" x="993" y="13" width="264" height="352">
<path d="M993.5 13.5H1233C1245.98 13.5 1256.5 24.0213 1256.5 37V364.022H1043C1015.66 364.022 993.5 341.86 993.5 314.522V13.5Z" fill="url(#paint0_linear_1_440)" stroke="#6246E5"/>
</mask>
<g mask="url(#mask0_1_440)">
<circle cx="1232.01" cy="191.32" r="91.8033" stroke="#6246E5"/>
<circle cx="1224.73" cy="181.604" r="102.734" stroke="#6246E5"/>
<circle cx="1218.66" cy="173.71" r="112.45" stroke="#6246E5"/>
<circle cx="1212.58" cy="162.171" r="120.952" stroke="#6246E5"/>
<circle cx="1206.81" cy="150.937" r="129.15" stroke="#6246E5"/>
<circle cx="1197.1" cy="138.185" r="141.902" stroke="#6246E5"/>
</g>
</g>
<g opacity="0.1">
<mask id="mask1_1_440" style="mask-type:alpha" maskUnits="userSpaceOnUse" x="0" y="59" width="480" height="361">
<rect x="479.5" y="59.5" width="360" height="479" transform="rotate(90 479.5 59.5)" fill="url(#paint1_linear_1_440)" stroke="#6246E5"/>
</mask>
<g mask="url(#mask1_1_440)">
<path d="M236.505 512.92C167.172 512.92 110.966 456.635 110.966 387.202C110.966 317.769 167.172 261.484 236.505 261.484C305.838 261.484 362.045 317.769 362.045 387.202C362.045 456.635 305.838 512.92 236.505 512.92Z" stroke="#6246E5"/>
<path d="M249.773 517.902C172.197 517.902 109.307 454.925 109.307 377.237C109.307 299.55 172.197 236.573 249.773 236.573C327.349 236.573 390.238 299.55 390.238 377.237C390.238 454.925 327.349 517.902 249.773 517.902Z" stroke="#6246E5"/>
<path d="M260.552 522.885C175.649 522.885 106.82 453.959 106.82 368.934C106.82 283.909 175.649 214.983 260.552 214.983C345.456 214.983 414.285 283.909 414.285 368.934C414.285 453.959 345.456 522.885 260.552 522.885Z" stroke="#6246E5"/>
<path d="M276.308 526.206C184.993 526.206 110.966 452.076 110.966 360.63C110.966 269.184 184.993 195.054 276.308 195.054C367.622 195.054 441.649 269.184 441.649 360.63C441.649 452.076 367.622 526.206 276.308 526.206Z" stroke="#6246E5"/>
<path d="M291.648 529.528C194.15 529.528 115.112 450.378 115.112 352.742C115.112 255.105 194.15 175.955 291.648 175.955C389.145 175.955 468.183 255.105 468.183 352.742C468.183 450.379 389.145 529.528 291.648 529.528Z" stroke="#6246E5"/>
<path d="M309.061 533.68C201.947 533.68 115.112 446.723 115.112 339.456C115.112 232.188 201.947 145.231 309.061 145.231C416.175 145.231 503.01 232.188 503.01 339.456C503.01 446.723 416.175 533.68 309.061 533.68Z" stroke="#6246E5"/>
</g>
</g>
<rect x="339" y="274" width="421" height="68" rx="10" fill="white"/>
<path d="M413.778 303.2L410.11 309.64V313H408.766V309.696L405.042 303.2H406.414L409.438 308.198L412.406 303.2H413.778ZM417.461 305.552C418.199 305.552 418.852 305.711 419.421 306.028C420 306.345 420.448 306.789 420.765 307.358C421.092 307.918 421.255 308.562 421.255 309.29C421.255 310.018 421.092 310.667 420.765 311.236C420.448 311.805 420 312.249 419.421 312.566C418.852 312.883 418.199 313.042 417.461 313.042C416.715 313.042 416.052 312.883 415.473 312.566C414.904 312.249 414.456 311.81 414.129 311.25C413.812 310.681 413.653 310.027 413.653 309.29C413.653 308.562 413.812 307.918 414.129 307.358C414.456 306.789 414.904 306.345 415.473 306.028C416.052 305.711 416.715 305.552 417.461 305.552ZM417.461 306.686C416.976 306.686 416.542 306.798 416.159 307.022C415.786 307.246 415.492 307.559 415.277 307.96C415.072 308.352 414.969 308.8 414.969 309.304C414.969 309.817 415.072 310.275 415.277 310.676C415.492 311.077 415.786 311.39 416.159 311.614C416.542 311.829 416.976 311.936 417.461 311.936C417.937 311.936 418.362 311.829 418.735 311.614C419.118 311.39 419.412 311.077 419.617 310.676C419.832 310.275 419.939 309.817 419.939 309.304C419.939 308.8 419.832 308.352 419.617 307.96C419.412 307.559 419.118 307.246 418.735 307.022C418.362 306.798 417.937 306.686 417.461 306.686ZM429.629 305.594V313H428.313V311.432C427.827 312.487 426.913 313.023 425.569 313.042C424.71 313.042 424.038 312.79 423.553 312.286C423.067 311.773 422.825 311.068 422.825 310.172V305.594H424.141V309.822C424.141 310.447 424.309 310.937 424.645 311.292C424.99 311.637 425.461 311.81 426.059 311.81C426.749 311.801 427.295 311.558 427.697 311.082C428.107 310.597 428.313 309.981 428.313 309.234V305.594H429.629ZM433.471 307.19C433.713 306.658 434.059 306.257 434.507 305.986C434.955 305.706 435.487 305.561 436.103 305.552V306.812C435.347 306.784 434.735 306.98 434.269 307.4C433.802 307.82 433.536 308.385 433.471 309.094V313H432.169V305.594H433.471V307.19ZM444.146 305.552C445.294 305.552 446.162 305.893 446.75 306.574C447.338 307.246 447.632 308.184 447.632 309.388C447.632 309.575 447.628 309.715 447.618 309.808H441.766C441.869 310.471 442.144 310.998 442.592 311.39C443.05 311.782 443.61 311.978 444.272 311.978C444.711 311.978 445.117 311.899 445.49 311.74C445.873 311.581 446.204 311.357 446.484 311.068L447.198 311.81C446.834 312.202 446.396 312.505 445.882 312.72C445.369 312.935 444.8 313.042 444.174 313.042C443.446 313.042 442.798 312.888 442.228 312.58C441.668 312.263 441.23 311.819 440.912 311.25C440.604 310.681 440.45 310.032 440.45 309.304C440.45 308.576 440.604 307.932 440.912 307.372C441.23 306.803 441.668 306.359 442.228 306.042C442.788 305.715 443.428 305.552 444.146 305.552ZM446.456 308.8C446.419 308.128 446.195 307.601 445.784 307.218C445.374 306.826 444.832 306.63 444.16 306.63C443.507 306.63 442.961 306.826 442.522 307.218C442.093 307.61 441.836 308.137 441.752 308.8H446.456ZM458.971 305.552C459.82 305.552 460.487 305.809 460.973 306.322C461.458 306.835 461.701 307.535 461.701 308.422V313H460.385V308.772C460.385 308.147 460.212 307.657 459.867 307.302C459.531 306.947 459.064 306.77 458.467 306.77C457.767 306.789 457.216 307.036 456.815 307.512C456.413 307.988 456.213 308.599 456.213 309.346V313H454.897V308.772C454.897 308.147 454.729 307.657 454.393 307.302C454.057 306.947 453.585 306.77 452.979 306.77C452.279 306.789 451.723 307.036 451.313 307.512C450.911 307.988 450.711 308.599 450.711 309.346V313H449.409V305.594H450.711V307.148C451.196 306.103 452.115 305.571 453.469 305.552C454.15 305.552 454.715 305.715 455.163 306.042C455.62 306.369 455.928 306.826 456.087 307.414C456.544 306.191 457.505 305.571 458.971 305.552ZM468.546 313V311.964C467.995 312.692 467.132 313.056 465.956 313.056C465.443 313.056 464.99 312.958 464.598 312.762C464.215 312.566 463.917 312.295 463.702 311.95C463.497 311.605 463.394 311.217 463.394 310.788C463.394 310.125 463.637 309.603 464.122 309.22C464.617 308.828 465.303 308.627 466.18 308.618H468.532V308.268C468.532 307.745 468.369 307.344 468.042 307.064C467.725 306.775 467.258 306.63 466.642 306.63C465.895 306.63 465.135 306.896 464.36 307.428L463.814 306.532C464.346 306.187 464.836 305.939 465.284 305.79C465.741 305.631 466.283 305.552 466.908 305.552C467.832 305.552 468.546 305.781 469.05 306.238C469.554 306.686 469.811 307.316 469.82 308.128L469.834 313H468.546ZM466.222 311.978C466.829 311.978 467.342 311.833 467.762 311.544C468.191 311.245 468.448 310.853 468.532 310.368V309.626H466.362C465.774 309.626 465.335 309.715 465.046 309.892C464.766 310.069 464.626 310.349 464.626 310.732C464.626 311.115 464.771 311.418 465.06 311.642C465.349 311.866 465.737 311.978 466.222 311.978ZM472.159 305.594H473.461V313H472.159V305.594ZM472.803 302.64C473.036 302.64 473.227 302.719 473.377 302.878C473.535 303.037 473.615 303.237 473.615 303.48C473.615 303.723 473.535 303.923 473.377 304.082C473.227 304.241 473.036 304.32 472.803 304.32C472.569 304.32 472.373 304.241 472.215 304.082C472.065 303.923 471.991 303.723 471.991 303.48C471.991 303.237 472.065 303.037 472.215 302.878C472.373 302.719 472.569 302.64 472.803 302.64ZM476.071 302.612H477.373V313H476.071V302.612Z" fill="#39425D"/>
<path d="M374 305L379.4 309.05C379.756 309.317 380.244 309.317 380.6 309.05L386 305" stroke="#39425D" stroke-linecap="round"/>
<rect x="370.5" y="299.5" width="20" height="17" rx="4.5" stroke="#39425D"/>
<rect x="784" y="274" width="180" height="68" rx="10" fill="url(#paint2_linear_1_440)"/>
<path d="M842.648 310.705C842.648 311.784 842.258 312.63 841.478 313.245C840.697 313.859 839.621 314.166 838.249 314.166C836.876 314.166 835.753 313.953 834.878 313.527V311.651C835.432 311.911 836.018 312.116 836.638 312.265C837.264 312.415 837.845 312.489 838.381 312.489C839.167 312.489 839.745 312.34 840.116 312.041C840.493 311.742 840.681 311.341 840.681 310.837C840.681 310.384 840.509 309.999 840.166 309.684C839.823 309.368 839.115 308.995 838.041 308.563C836.934 308.115 836.154 307.603 835.7 307.027C835.246 306.452 835.02 305.76 835.02 304.952C835.02 303.939 835.379 303.143 836.099 302.562C836.818 301.98 837.784 301.69 838.996 301.69C840.158 301.69 841.314 301.944 842.465 302.454L841.834 304.072C840.755 303.618 839.792 303.392 838.946 303.392C838.304 303.392 837.817 303.533 837.485 303.815C837.153 304.092 836.987 304.46 836.987 304.919C836.987 305.234 837.053 305.506 837.186 305.732C837.319 305.954 837.537 306.164 837.842 306.363C838.146 306.562 838.694 306.825 839.485 307.152C840.376 307.523 841.029 307.868 841.444 308.189C841.859 308.51 842.164 308.873 842.357 309.277C842.551 309.681 842.648 310.157 842.648 310.705ZM851.264 314L850.99 312.796H850.891C850.619 313.222 850.232 313.557 849.729 313.801C849.23 314.044 848.66 314.166 848.019 314.166C846.906 314.166 846.076 313.889 845.528 313.336C844.98 312.783 844.707 311.944 844.707 310.821V304.819H846.674V310.48C846.674 311.183 846.818 311.712 847.105 312.066C847.393 312.415 847.844 312.589 848.458 312.589C849.278 312.589 849.878 312.345 850.26 311.858C850.647 311.366 850.841 310.544 850.841 309.393V304.819H852.8V314H851.264ZM860.271 304.653C861.416 304.653 862.307 305.068 862.943 305.898C863.585 306.729 863.906 307.893 863.906 309.393C863.906 310.898 863.583 312.071 862.935 312.913C862.288 313.748 861.388 314.166 860.237 314.166C859.075 314.166 858.173 313.748 857.531 312.913H857.398L857.042 314H855.581V301.084H857.531V304.155C857.531 304.382 857.52 304.72 857.498 305.168C857.476 305.616 857.459 305.901 857.448 306.023H857.531C858.151 305.11 859.064 304.653 860.271 304.653ZM859.764 306.247C858.978 306.247 858.411 306.479 858.062 306.944C857.719 307.404 857.542 308.176 857.531 309.26V309.393C857.531 310.511 857.708 311.322 858.062 311.825C858.417 312.323 858.995 312.572 859.797 312.572C860.489 312.572 861.012 312.298 861.366 311.75C861.726 311.203 861.906 310.411 861.906 309.376C861.906 307.29 861.192 306.247 859.764 306.247ZM872.34 311.385C872.34 312.282 872.013 312.971 871.36 313.452C870.707 313.928 869.772 314.166 868.555 314.166C867.332 314.166 866.349 313.981 865.608 313.61V311.925C866.687 312.423 867.691 312.672 868.621 312.672C869.822 312.672 870.422 312.309 870.422 311.584C870.422 311.352 870.356 311.158 870.223 311.003C870.09 310.848 869.872 310.688 869.567 310.522C869.263 310.356 868.84 310.168 868.297 309.958C867.24 309.548 866.524 309.139 866.147 308.729C865.777 308.319 865.591 307.788 865.591 307.135C865.591 306.349 865.907 305.741 866.538 305.309C867.174 304.872 868.037 304.653 869.127 304.653C870.207 304.653 871.228 304.872 872.19 305.309L871.56 306.778C870.569 306.369 869.736 306.164 869.061 306.164C868.032 306.164 867.517 306.457 867.517 307.044C867.517 307.332 867.65 307.575 867.916 307.774C868.187 307.974 868.773 308.248 869.675 308.596C870.433 308.889 870.984 309.158 871.327 309.401C871.67 309.645 871.925 309.927 872.091 310.248C872.257 310.563 872.34 310.943 872.34 311.385ZM878.159 314.166C876.77 314.166 875.713 313.762 874.988 312.954C874.268 312.141 873.909 310.976 873.909 309.459C873.909 307.916 874.285 306.729 875.038 305.898C875.796 305.068 876.889 304.653 878.316 304.653C879.285 304.653 880.156 304.833 880.931 305.193L880.342 306.762C879.517 306.441 878.837 306.28 878.3 306.28C876.712 306.28 875.917 307.334 875.917 309.443C875.917 310.472 876.114 311.247 876.507 311.767C876.905 312.282 877.486 312.539 878.25 312.539C879.119 312.539 879.941 312.323 880.715 311.892V313.593C880.367 313.798 879.993 313.945 879.595 314.033C879.202 314.122 878.723 314.166 878.159 314.166ZM887.53 304.653C887.923 304.653 888.247 304.681 888.501 304.736L888.311 306.554C888.034 306.488 887.746 306.455 887.447 306.455C886.667 306.455 886.033 306.709 885.546 307.218C885.065 307.727 884.824 308.389 884.824 309.202V314H882.874V304.819H884.401L884.658 306.438H884.758C885.062 305.89 885.458 305.456 885.945 305.135C886.437 304.814 886.966 304.653 887.53 304.653ZM892.162 314H890.211V304.819H892.162V314ZM890.095 302.387C890.095 302.039 890.189 301.77 890.377 301.582C890.571 301.394 890.845 301.3 891.199 301.3C891.542 301.3 891.808 301.394 891.996 301.582C892.19 301.77 892.287 302.039 892.287 302.387C892.287 302.719 892.19 302.982 891.996 303.176C891.808 303.364 891.542 303.458 891.199 303.458C890.845 303.458 890.571 303.364 890.377 303.176C890.189 302.982 890.095 302.719 890.095 302.387ZM899.649 304.653C900.795 304.653 901.686 305.068 902.322 305.898C902.964 306.729 903.285 307.893 903.285 309.393C903.285 310.898 902.961 312.071 902.314 312.913C901.667 313.748 900.767 314.166 899.616 314.166C898.454 314.166 897.552 313.748 896.91 312.913H896.777L896.42 314H894.959V301.084H896.91V304.155C896.91 304.382 896.899 304.72 896.877 305.168C896.855 305.616 896.838 305.901 896.827 306.023H896.91C897.53 305.11 898.443 304.653 899.649 304.653ZM899.143 306.247C898.357 306.247 897.79 306.479 897.441 306.944C897.098 307.404 896.921 308.176 896.91 309.26V309.393C896.91 310.511 897.087 311.322 897.441 311.825C897.796 312.323 898.374 312.572 899.176 312.572C899.868 312.572 900.391 312.298 900.745 311.75C901.105 311.203 901.285 310.411 901.285 309.376C901.285 307.29 900.571 306.247 899.143 306.247ZM909.561 314.166C908.133 314.166 907.015 313.751 906.207 312.921C905.405 312.085 905.003 310.937 905.003 309.476C905.003 307.976 905.377 306.798 906.124 305.94C906.871 305.082 907.898 304.653 909.204 304.653C910.416 304.653 911.373 305.021 912.076 305.757C912.778 306.493 913.13 307.506 913.13 308.795V309.85H907.012C907.04 310.741 907.281 311.427 907.734 311.908C908.188 312.384 908.827 312.622 909.652 312.622C910.194 312.622 910.698 312.572 911.163 312.473C911.633 312.368 912.137 312.196 912.673 311.958V313.543C912.197 313.77 911.716 313.931 911.229 314.025C910.742 314.119 910.186 314.166 909.561 314.166ZM909.204 306.131C908.584 306.131 908.086 306.327 907.709 306.72C907.339 307.113 907.117 307.686 907.045 308.438H911.212C911.201 307.68 911.019 307.108 910.665 306.72C910.31 306.327 909.823 306.131 909.204 306.131Z" fill="white"/>
<path d="M242.283 109.365C241.359 109.365 240.6 109.607 240.006 110.091C239.434 110.553 239.148 111.202 239.148 112.038C239.148 112.874 239.357 113.534 239.775 114.018C240.215 114.48 240.787 114.843 241.491 115.107C242.195 115.349 242.965 115.569 243.801 115.767C244.637 115.965 245.473 116.207 246.309 116.493C247.145 116.779 247.915 117.131 248.619 117.549C249.323 117.967 249.884 118.583 250.302 119.397C250.742 120.189 250.962 121.157 250.962 122.301C250.962 124.193 250.203 125.821 248.685 127.185C247.189 128.549 245.187 129.231 242.679 129.231C240.193 129.231 238.18 128.648 236.64 127.482C235.1 126.294 234.33 124.633 234.33 122.499H239.28C239.456 124.523 240.611 125.535 242.745 125.535C243.801 125.535 244.637 125.26 245.253 124.71C245.869 124.16 246.177 123.434 246.177 122.532C246.177 121.608 245.77 120.882 244.956 120.354C244.142 119.826 243.152 119.43 241.986 119.166C240.842 118.902 239.687 118.583 238.521 118.209C237.355 117.835 236.365 117.186 235.551 116.262C234.737 115.316 234.33 114.073 234.33 112.533C234.33 110.443 235.089 108.771 236.607 107.517C238.125 106.263 240.072 105.636 242.448 105.636C244.846 105.636 246.771 106.186 248.223 107.286C249.675 108.364 250.467 110.014 250.599 112.236H245.517C245.429 111.356 245.099 110.663 244.527 110.157C243.955 109.629 243.207 109.365 242.283 109.365ZM268.023 110.718H272.676V129H268.023V126.228C266.857 128.23 264.954 129.231 262.314 129.231C260.246 129.231 258.552 128.549 257.232 127.185C255.912 125.799 255.252 123.885 255.252 121.443V110.718H259.872V120.783C259.872 122.213 260.235 123.313 260.961 124.083C261.687 124.853 262.677 125.238 263.931 125.238C265.185 125.238 266.175 124.853 266.901 124.083C267.649 123.313 268.023 122.213 268.023 120.783V110.718ZM290.458 123.786C291.426 122.818 291.91 121.498 291.91 119.826C291.91 118.154 291.426 116.845 290.458 115.899C289.512 114.953 288.39 114.48 287.092 114.48C285.794 114.48 284.661 114.964 283.693 115.932C282.747 116.878 282.274 118.187 282.274 119.859C282.274 121.531 282.747 122.851 283.693 123.819C284.661 124.765 285.794 125.238 287.092 125.238C288.39 125.238 289.512 124.754 290.458 123.786ZM282.274 113.556C283.572 111.488 285.475 110.454 287.983 110.454C290.491 110.454 292.559 111.334 294.187 113.094C295.815 114.832 296.629 117.087 296.629 119.859C296.629 122.609 295.815 124.864 294.187 126.624C292.559 128.384 290.502 129.264 288.016 129.264C285.552 129.264 283.638 128.153 282.274 125.931V129H277.621V104.58H282.274V113.556ZM299.254 116.064C299.254 114.48 299.925 113.149 301.267 112.071C302.609 110.993 304.391 110.454 306.613 110.454C308.835 110.454 310.617 110.993 311.959 112.071C313.301 113.127 314.016 114.568 314.104 116.394H309.352C309.22 114.854 308.274 114.084 306.514 114.084C305.634 114.084 304.952 114.26 304.468 114.612C303.984 114.964 303.742 115.448 303.742 116.064C303.742 116.68 304.105 117.164 304.831 117.516C305.557 117.868 306.437 118.143 307.471 118.341C308.505 118.539 309.528 118.792 310.54 119.1C311.574 119.386 312.454 119.914 313.18 120.684C313.906 121.432 314.269 122.433 314.269 123.687C314.269 125.337 313.565 126.679 312.157 127.713C310.771 128.747 308.989 129.264 306.811 129.264C304.655 129.264 302.884 128.758 301.498 127.746C300.112 126.712 299.353 125.238 299.221 123.324H303.973C304.149 124.864 305.128 125.634 306.91 125.634C307.768 125.634 308.461 125.447 308.989 125.073C309.517 124.677 309.781 124.171 309.781 123.555C309.781 122.917 309.418 122.422 308.692 122.07C307.966 121.696 307.086 121.41 306.052 121.212C305.018 121.014 303.984 120.772 302.95 120.486C301.938 120.2 301.069 119.694 300.343 118.968C299.617 118.22 299.254 117.252 299.254 116.064ZM319.448 126.69C317.776 124.974 316.94 122.697 316.94 119.859C316.94 117.021 317.776 114.744 319.448 113.028C321.12 111.312 323.287 110.454 325.949 110.454C328.171 110.454 330.03 110.993 331.526 112.071C333.022 113.149 334.023 114.678 334.529 116.658H329.513C328.919 115.14 327.731 114.381 325.949 114.381C324.607 114.381 323.551 114.876 322.781 115.866C322.033 116.834 321.659 118.165 321.659 119.859C321.659 121.553 322.033 122.895 322.781 123.885C323.551 124.853 324.607 125.337 325.949 125.337C327.709 125.337 328.897 124.567 329.513 123.027H334.529C334.001 124.941 332.978 126.459 331.46 127.581C329.964 128.703 328.127 129.264 325.949 129.264C323.287 129.264 321.12 128.406 319.448 126.69ZM342.667 110.718V113.952C343.899 111.62 345.681 110.454 348.013 110.454V115.206H346.858C345.472 115.206 344.427 115.558 343.723 116.262C343.019 116.944 342.667 118.132 342.667 119.826V129H338.014V110.718H342.667ZM356.472 106.065C356.472 106.857 356.197 107.528 355.647 108.078C355.097 108.628 354.426 108.903 353.634 108.903C352.864 108.903 352.204 108.628 351.654 108.078C351.104 107.528 350.829 106.857 350.829 106.065C350.829 105.273 351.104 104.602 351.654 104.052C352.204 103.502 352.864 103.227 353.634 103.227C354.426 103.227 355.097 103.502 355.647 104.052C356.197 104.602 356.472 105.273 356.472 106.065ZM351.324 129V110.718H355.977V129H351.324ZM373.764 123.786C374.732 122.818 375.216 121.498 375.216 119.826C375.216 118.154 374.732 116.845 373.764 115.899C372.818 114.953 371.696 114.48 370.398 114.48C369.1 114.48 367.967 114.964 366.999 115.932C366.053 116.878 365.58 118.187 365.58 119.859C365.58 121.531 366.053 122.851 366.999 123.819C367.967 124.765 369.1 125.238 370.398 125.238C371.696 125.238 372.818 124.754 373.764 123.786ZM365.58 113.556C366.878 111.488 368.781 110.454 371.289 110.454C373.797 110.454 375.865 111.334 377.493 113.094C379.121 114.832 379.935 117.087 379.935 119.859C379.935 122.609 379.121 124.864 377.493 126.624C375.865 128.384 373.808 129.264 371.322 129.264C368.858 129.264 366.944 128.153 365.58 125.931V129H360.927V104.58H365.58V113.556ZM391.304 129.264C388.642 129.264 386.475 128.406 384.803 126.69C383.131 124.952 382.295 122.664 382.295 119.826C382.295 116.988 383.131 114.722 384.803 113.028C386.497 111.312 388.675 110.454 391.337 110.454C394.021 110.454 396.221 111.29 397.937 112.962C399.653 114.612 400.511 116.823 400.511 119.595C400.511 120.233 400.467 120.827 400.379 121.377H387.047C387.157 122.565 387.597 123.522 388.367 124.248C389.137 124.974 390.116 125.337 391.304 125.337C392.91 125.337 394.098 124.677 394.868 123.357H399.884C399.356 125.095 398.333 126.514 396.815 127.614C395.297 128.714 393.46 129.264 391.304 129.264ZM395.693 118.374C395.627 117.164 395.176 116.196 394.34 115.47C393.526 114.744 392.536 114.381 391.37 114.381C390.204 114.381 389.225 114.744 388.433 115.47C387.663 116.196 387.201 117.164 387.047 118.374H395.693ZM421.164 125.106H423.375V129H420.438C418.568 129 417.127 128.571 416.115 127.713C415.103 126.855 414.597 125.436 414.597 123.456V114.513H412.65V110.718H414.597V106.197H419.25V110.718H423.342V114.513H419.25V123.456C419.25 124.05 419.393 124.479 419.679 124.743C419.965 124.985 420.46 125.106 421.164 125.106ZM435.11 125.337C436.408 125.337 437.519 124.864 438.443 123.918C439.389 122.95 439.862 121.597 439.862 119.859C439.862 118.099 439.4 116.746 438.476 115.8C437.552 114.854 436.43 114.381 435.11 114.381C433.812 114.381 432.712 114.854 431.81 115.8C430.908 116.746 430.457 118.099 430.457 119.859C430.457 121.619 430.908 122.972 431.81 123.918C432.712 124.864 433.812 125.337 435.11 125.337ZM428.411 126.657C426.629 124.919 425.738 122.642 425.738 119.826C425.738 117.01 426.64 114.744 428.444 113.028C430.248 111.312 432.481 110.454 435.143 110.454C437.827 110.454 440.071 111.312 441.875 113.028C443.679 114.744 444.581 117.01 444.581 119.826C444.581 122.642 443.668 124.919 441.842 126.657C440.038 128.395 437.794 129.264 435.11 129.264C432.426 129.264 430.193 128.395 428.411 126.657ZM459.31 126.624C457.682 124.842 456.868 122.576 456.868 119.826C456.868 117.076 457.682 114.832 459.31 113.094C460.938 111.334 463.006 110.454 465.514 110.454C468.022 110.454 469.936 111.488 471.256 113.556V110.718H475.876V129.132C475.876 131.75 475.106 133.884 473.566 135.534C472.026 137.206 469.859 138.042 467.065 138.042C464.293 138.042 462.082 137.459 460.432 136.293C458.804 135.149 457.88 133.51 457.66 131.376H462.214C462.5 132.19 463.05 132.828 463.864 133.29C464.678 133.774 465.701 134.016 466.933 134.016C468.165 134.016 469.188 133.609 470.002 132.795C470.838 131.981 471.256 130.76 471.256 129.132V125.931C469.87 128.153 467.945 129.264 465.481 129.264C463.017 129.264 460.96 128.384 459.31 126.624ZM469.804 123.819C470.772 122.851 471.256 121.531 471.256 119.859C471.256 118.187 470.772 116.878 469.804 115.932C468.836 114.964 467.703 114.48 466.405 114.48C465.107 114.48 463.974 114.953 463.006 115.899C462.06 116.845 461.587 118.154 461.587 119.826C461.587 121.498 462.071 122.818 463.039 123.786C464.007 124.754 465.129 125.238 466.405 125.238C467.703 125.238 468.836 124.765 469.804 123.819ZM488.532 129.264C485.87 129.264 483.703 128.406 482.031 126.69C480.359 124.952 479.523 122.664 479.523 119.826C479.523 116.988 480.359 114.722 482.031 113.028C483.725 111.312 485.903 110.454 488.565 110.454C491.249 110.454 493.449 111.29 495.165 112.962C496.881 114.612 497.739 116.823 497.739 119.595C497.739 120.233 497.695 120.827 497.607 121.377H484.275C484.385 122.565 484.825 123.522 485.595 124.248C486.365 124.974 487.344 125.337 488.532 125.337C490.138 125.337 491.326 124.677 492.096 123.357H497.112C496.584 125.095 495.561 126.514 494.043 127.614C492.525 128.714 490.688 129.264 488.532 129.264ZM492.921 118.374C492.855 117.164 492.404 116.196 491.568 115.47C490.754 114.744 489.764 114.381 488.598 114.381C487.432 114.381 486.453 114.744 485.661 115.47C484.891 116.196 484.429 117.164 484.275 118.374H492.921ZM508.498 125.106H510.709V129H507.772C505.902 129 504.461 128.571 503.449 127.713C502.437 126.855 501.931 125.436 501.931 123.456V114.513H499.984V110.718H501.931V106.197H506.584V110.718H510.676V114.513H506.584V123.456C506.584 124.05 506.727 124.479 507.013 124.743C507.299 124.985 507.794 125.106 508.498 125.106ZM529.367 106.065C529.367 106.857 529.092 107.528 528.542 108.078C527.992 108.628 527.321 108.903 526.529 108.903C525.759 108.903 525.099 108.628 524.549 108.078C523.999 107.528 523.724 106.857 523.724 106.065C523.724 105.273 523.999 104.602 524.549 104.052C525.099 103.502 525.759 103.227 526.529 103.227C527.321 103.227 527.992 103.502 528.542 104.052C529.092 104.602 529.367 105.273 529.367 106.065ZM524.219 129V110.718H528.872V129H524.219ZM538.476 110.718V113.457C539.642 111.455 541.534 110.454 544.152 110.454C546.242 110.454 547.947 111.147 549.267 112.533C550.587 113.897 551.247 115.8 551.247 118.242V129H546.627V118.902C546.627 117.472 546.264 116.383 545.538 115.635C544.812 114.865 543.822 114.48 542.568 114.48C541.314 114.48 540.313 114.865 539.565 115.635C538.839 116.383 538.476 117.472 538.476 118.902V129H533.823V110.718H538.476ZM563.848 110.718V114.513H560.944V129H556.324V114.513H554.344V110.718H556.324V109.695C556.324 107.495 556.907 105.889 558.073 104.877C559.239 103.865 561.076 103.359 563.584 103.359V107.253C562.616 107.253 561.934 107.44 561.538 107.814C561.142 108.188 560.944 108.815 560.944 109.695V110.718H563.848ZM575.166 125.337C576.464 125.337 577.575 124.864 578.499 123.918C579.445 122.95 579.918 121.597 579.918 119.859C579.918 118.099 579.456 116.746 578.532 115.8C577.608 114.854 576.486 114.381 575.166 114.381C573.868 114.381 572.768 114.854 571.866 115.8C570.964 116.746 570.513 118.099 570.513 119.859C570.513 121.619 570.964 122.972 571.866 123.918C572.768 124.864 573.868 125.337 575.166 125.337ZM568.467 126.657C566.685 124.919 565.794 122.642 565.794 119.826C565.794 117.01 566.696 114.744 568.5 113.028C570.304 111.312 572.537 110.454 575.199 110.454C577.883 110.454 580.127 111.312 581.931 113.028C583.735 114.744 584.637 117.01 584.637 119.826C584.637 122.642 583.724 124.919 581.898 126.657C580.094 128.395 577.85 129.264 575.166 129.264C572.482 129.264 570.249 128.395 568.467 126.657ZM592.971 110.718V113.952C594.203 111.62 595.985 110.454 598.317 110.454V115.206H597.162C595.776 115.206 594.731 115.558 594.027 116.262C593.323 116.944 592.971 118.132 592.971 119.826V129H588.318V110.718H592.971ZM606.28 110.718V113.457C607.446 111.455 609.338 110.454 611.956 110.454C613.342 110.454 614.574 110.773 615.652 111.411C616.752 112.049 617.599 112.962 618.193 114.15C618.831 113.006 619.7 112.104 620.8 111.444C621.922 110.784 623.176 110.454 624.562 110.454C626.74 110.454 628.489 111.136 629.809 112.5C631.151 113.864 631.822 115.778 631.822 118.242V129H627.202V118.902C627.202 117.472 626.839 116.383 626.113 115.635C625.387 114.865 624.397 114.48 623.143 114.48C621.889 114.48 620.888 114.865 620.14 115.635C619.414 116.383 619.051 117.472 619.051 118.902V129H614.431V118.902C614.431 117.472 614.068 116.383 613.342 115.635C612.616 114.865 611.626 114.48 610.372 114.48C609.118 114.48 608.117 114.865 607.369 115.635C606.643 116.383 606.28 117.472 606.28 118.902V129H601.627V110.718H606.28ZM648.242 123.819C649.21 122.851 649.694 121.531 649.694 119.859C649.694 118.187 649.21 116.878 648.242 115.932C647.274 114.964 646.141 114.48 644.843 114.48C643.545 114.48 642.412 114.953 641.444 115.899C640.498 116.845 640.025 118.154 640.025 119.826C640.025 121.498 640.509 122.818 641.477 123.786C642.445 124.754 643.567 125.238 644.843 125.238C646.141 125.238 647.274 124.765 648.242 123.819ZM637.748 126.624C636.12 124.842 635.306 122.576 635.306 119.826C635.306 117.076 636.12 114.832 637.748 113.094C639.376 111.334 641.444 110.454 643.952 110.454C646.46 110.454 648.374 111.488 649.694 113.556V110.718H654.314V129H649.694V125.931C648.308 128.153 646.383 129.264 643.919 129.264C641.455 129.264 639.398 128.384 637.748 126.624ZM666.343 125.106H668.554V129H665.617C663.747 129 662.306 128.571 661.294 127.713C660.282 126.855 659.776 125.436 659.776 123.456V114.513H657.829V110.718H659.776V106.197H664.429V110.718H668.521V114.513H664.429V123.456C664.429 124.05 664.572 124.479 664.858 124.743C665.144 124.985 665.639 125.106 666.343 125.106ZM677.319 106.065C677.319 106.857 677.044 107.528 676.494 108.078C675.944 108.628 675.273 108.903 674.481 108.903C673.711 108.903 673.051 108.628 672.501 108.078C671.951 107.528 671.676 106.857 671.676 106.065C671.676 105.273 671.951 104.602 672.501 104.052C673.051 103.502 673.711 103.227 674.481 103.227C675.273 103.227 675.944 103.502 676.494 104.052C677.044 104.602 677.319 105.273 677.319 106.065ZM672.171 129V110.718H676.824V129H672.171ZM689.893 125.337C691.191 125.337 692.302 124.864 693.226 123.918C694.172 122.95 694.645 121.597 694.645 119.859C694.645 118.099 694.183 116.746 693.259 115.8C692.335 114.854 691.213 114.381 689.893 114.381C688.595 114.381 687.495 114.854 686.593 115.8C685.691 116.746 685.24 118.099 685.24 119.859C685.24 121.619 685.691 122.972 686.593 123.918C687.495 124.864 688.595 125.337 689.893 125.337ZM683.194 126.657C681.412 124.919 680.521 122.642 680.521 119.826C680.521 117.01 681.423 114.744 683.227 113.028C685.031 111.312 687.264 110.454 689.926 110.454C692.61 110.454 694.854 111.312 696.658 113.028C698.462 114.744 699.364 117.01 699.364 119.826C699.364 122.642 698.451 124.919 696.625 126.657C694.821 128.395 692.577 129.264 689.893 129.264C687.209 129.264 684.976 128.395 683.194 126.657ZM707.697 110.718V113.457C708.863 111.455 710.755 110.454 713.373 110.454C715.463 110.454 717.168 111.147 718.488 112.533C719.808 113.897 720.468 115.8 720.468 118.242V129H715.848V118.902C715.848 117.472 715.485 116.383 714.759 115.635C714.033 114.865 713.043 114.48 711.789 114.48C710.535 114.48 709.534 114.865 708.786 115.635C708.06 116.383 707.697 117.472 707.697 118.902V129H703.044V110.718H707.697ZM723.862 125.997H727.921C728.735 128.263 728.911 130.221 728.449 131.871C728.207 132.685 727.734 133.334 727.03 133.818C726.348 134.302 725.457 134.544 724.357 134.544V132.696C724.929 132.696 725.347 132.564 725.611 132.3C725.875 132.036 726.007 131.574 726.007 130.914V130.287H723.862V125.997ZM742.393 129V104.58H747.046V129H742.393ZM763.645 123.819C764.613 122.851 765.097 121.531 765.097 119.859C765.097 118.187 764.613 116.878 763.645 115.932C762.677 114.964 761.544 114.48 760.246 114.48C758.948 114.48 757.815 114.953 756.847 115.899C755.901 116.845 755.428 118.154 755.428 119.826C755.428 121.498 755.912 122.818 756.88 123.786C757.848 124.754 758.97 125.238 760.246 125.238C761.544 125.238 762.677 124.765 763.645 123.819ZM753.151 126.624C751.523 124.842 750.709 122.576 750.709 119.826C750.709 117.076 751.523 114.832 753.151 113.094C754.779 111.334 756.847 110.454 759.355 110.454C761.863 110.454 763.777 111.488 765.097 113.556V110.718H769.717V129H765.097V125.931C763.711 128.153 761.786 129.264 759.322 129.264C756.858 129.264 754.801 128.384 753.151 126.624ZM781.747 125.106H783.958V129H781.021C779.151 129 777.71 128.571 776.698 127.713C775.686 126.855 775.18 125.436 775.18 123.456V114.513H773.233V110.718H775.18V106.197H779.833V110.718H783.925V114.513H779.833V123.456C779.833 124.05 779.976 124.479 780.262 124.743C780.548 124.985 781.043 125.106 781.747 125.106ZM795.297 129.264C792.635 129.264 790.468 128.406 788.796 126.69C787.124 124.952 786.288 122.664 786.288 119.826C786.288 116.988 787.124 114.722 788.796 113.028C790.49 111.312 792.668 110.454 795.33 110.454C798.014 110.454 800.214 111.29 801.93 112.962C803.646 114.612 804.504 116.823 804.504 119.595C804.504 120.233 804.46 120.827 804.372 121.377H791.04C791.15 122.565 791.59 123.522 792.36 124.248C793.13 124.974 794.109 125.337 795.297 125.337C796.903 125.337 798.091 124.677 798.861 123.357H803.877C803.349 125.095 802.326 126.514 800.808 127.614C799.29 128.714 797.453 129.264 795.297 129.264ZM799.686 118.374C799.62 117.164 799.169 116.196 798.333 115.47C797.519 114.744 796.529 114.381 795.363 114.381C794.197 114.381 793.218 114.744 792.426 115.47C791.656 116.196 791.194 117.164 791.04 118.374H799.686ZM807.144 116.064C807.144 114.48 807.815 113.149 809.157 112.071C810.499 110.993 812.281 110.454 814.503 110.454C816.725 110.454 818.507 110.993 819.849 112.071C821.191 113.127 821.906 114.568 821.994 116.394H817.242C817.11 114.854 816.164 114.084 814.404 114.084C813.524 114.084 812.842 114.26 812.358 114.612C811.874 114.964 811.632 115.448 811.632 116.064C811.632 116.68 811.995 117.164 812.721 117.516C813.447 117.868 814.327 118.143 815.361 118.341C816.395 118.539 817.418 118.792 818.43 119.1C819.464 119.386 820.344 119.914 821.07 120.684C821.796 121.432 822.159 122.433 822.159 123.687C822.159 125.337 821.455 126.679 820.047 127.713C818.661 128.747 816.879 129.264 814.701 129.264C812.545 129.264 810.774 128.758 809.388 127.746C808.002 126.712 807.243 125.238 807.111 123.324H811.863C812.039 124.864 813.018 125.634 814.8 125.634C815.658 125.634 816.351 125.447 816.879 125.073C817.407 124.677 817.671 124.171 817.671 123.555C817.671 122.917 817.308 122.422 816.582 122.07C815.856 121.696 814.976 121.41 813.942 121.212C812.908 121.014 811.874 120.772 810.84 120.486C809.828 120.2 808.959 119.694 808.233 118.968C807.507 118.22 807.144 117.252 807.144 116.064ZM833.213 125.106H835.424V129H832.487C830.617 129 829.176 128.571 828.164 127.713C827.152 126.855 826.646 125.436 826.646 123.456V114.513H824.699V110.718H826.646V106.197H831.299V110.718H835.391V114.513H831.299V123.456C831.299 124.05 831.442 124.479 831.728 124.743C832.014 124.985 832.509 125.106 833.213 125.106ZM853.587 110.718V113.457C854.753 111.455 856.645 110.454 859.263 110.454C861.353 110.454 863.058 111.147 864.378 112.533C865.698 113.897 866.358 115.8 866.358 118.242V129H861.738V118.902C861.738 117.472 861.375 116.383 860.649 115.635C859.923 114.865 858.933 114.48 857.679 114.48C856.425 114.48 855.424 114.865 854.676 115.635C853.95 116.383 853.587 117.472 853.587 118.902V129H848.934V110.718H853.587ZM878.86 129.264C876.198 129.264 874.031 128.406 872.359 126.69C870.687 124.952 869.851 122.664 869.851 119.826C869.851 116.988 870.687 114.722 872.359 113.028C874.053 111.312 876.231 110.454 878.893 110.454C881.577 110.454 883.777 111.29 885.493 112.962C887.209 114.612 888.067 116.823 888.067 119.595C888.067 120.233 888.023 120.827 887.935 121.377H874.603C874.713 122.565 875.153 123.522 875.923 124.248C876.693 124.974 877.672 125.337 878.86 125.337C880.466 125.337 881.654 124.677 882.424 123.357H887.44C886.912 125.095 885.889 126.514 884.371 127.614C882.853 128.714 881.016 129.264 878.86 129.264ZM883.249 118.374C883.183 117.164 882.732 116.196 881.896 115.47C881.082 114.744 880.092 114.381 878.926 114.381C877.76 114.381 876.781 114.744 875.989 115.47C875.219 116.196 874.757 117.164 874.603 118.374H883.249ZM912.455 110.718H916.91L911.3 129H906.35L903.215 116.724L900.047 129H895.097L889.487 110.718H894.173L897.539 124.611L900.905 110.718H905.789L909.089 124.578L912.455 110.718ZM918.552 116.064C918.552 114.48 919.223 113.149 920.565 112.071C921.907 110.993 923.689 110.454 925.911 110.454C928.133 110.454 929.915 110.993 931.257 112.071C932.599 113.127 933.314 114.568 933.402 116.394H928.65C928.518 114.854 927.572 114.084 925.812 114.084C924.932 114.084 924.25 114.26 923.766 114.612C923.282 114.964 923.04 115.448 923.04 116.064C923.04 116.68 923.403 117.164 924.129 117.516C924.855 117.868 925.735 118.143 926.769 118.341C927.803 118.539 928.826 118.792 929.838 119.1C930.872 119.386 931.752 119.914 932.478 120.684C933.204 121.432 933.567 122.433 933.567 123.687C933.567 125.337 932.863 126.679 931.455 127.713C930.069 128.747 928.287 129.264 926.109 129.264C923.953 129.264 922.182 128.758 920.796 127.746C919.41 126.712 918.651 125.238 918.519 123.324H923.271C923.447 124.864 924.426 125.634 926.208 125.634C927.066 125.634 927.759 125.447 928.287 125.073C928.815 124.677 929.079 124.171 929.079 123.555C929.079 122.917 928.716 122.422 927.99 122.07C927.264 121.696 926.384 121.41 925.35 121.212C924.316 121.014 923.282 120.772 922.248 120.486C921.236 120.2 920.367 119.694 919.641 118.968C918.915 118.22 918.552 117.252 918.552 116.064ZM959.067 123.819C960.035 122.851 960.519 121.531 960.519 119.859C960.519 118.187 960.035 116.878 959.067 115.932C958.099 114.964 956.966 114.48 955.668 114.48C954.37 114.48 953.237 114.953 952.269 115.899C951.323 116.845 950.85 118.154 950.85 119.826C950.85 121.498 951.334 122.818 952.302 123.786C953.27 124.754 954.392 125.238 955.668 125.238C956.966 125.238 958.099 124.765 959.067 123.819ZM948.573 126.624C946.945 124.842 946.131 122.576 946.131 119.826C946.131 117.076 946.945 114.832 948.573 113.094C950.201 111.334 952.269 110.454 954.777 110.454C957.285 110.454 959.199 111.488 960.519 113.556V110.718H965.139V129H960.519V125.931C959.133 128.153 957.208 129.264 954.744 129.264C952.28 129.264 950.223 128.384 948.573 126.624ZM974.727 110.718V113.457C975.893 111.455 977.785 110.454 980.403 110.454C982.493 110.454 984.198 111.147 985.518 112.533C986.838 113.897 987.498 115.8 987.498 118.242V129H982.878V118.902C982.878 117.472 982.515 116.383 981.789 115.635C981.063 114.865 980.073 114.48 978.819 114.48C977.565 114.48 976.564 114.865 975.816 115.635C975.09 116.383 974.727 117.472 974.727 118.902V129H970.074V110.718H974.727ZM1003.93 123.819C1004.89 122.851 1005.38 121.531 1005.38 119.859C1005.38 118.187 1004.89 116.878 1003.93 115.932C1002.96 114.964 1001.83 114.48 1000.53 114.48C999.23 114.48 998.097 114.953 997.129 115.899C996.183 116.845 995.71 118.154 995.71 119.826C995.71 121.498 996.194 122.818 997.162 123.786C998.13 124.754 999.252 125.238 1000.53 125.238C1001.83 125.238 1002.96 124.765 1003.93 123.819ZM993.433 126.624C991.805 124.842 990.991 122.576 990.991 119.826C990.991 117.076 991.805 114.832 993.433 113.094C995.061 111.334 997.129 110.454 999.637 110.454C1002.14 110.454 1004.06 111.488 1005.38 113.556V104.58H1010V129H1005.38V125.931C1003.99 128.153 1002.07 129.264 999.604 129.264C997.14 129.264 995.083 128.384 993.433 126.624ZM1032.94 125.337C1034.24 125.337 1035.35 124.864 1036.28 123.918C1037.22 122.95 1037.7 121.597 1037.7 119.859C1037.7 118.099 1037.23 116.746 1036.31 115.8C1035.39 114.854 1034.26 114.381 1032.94 114.381C1031.65 114.381 1030.55 114.854 1029.64 115.8C1028.74 116.746 1028.29 118.099 1028.29 119.859C1028.29 121.619 1028.74 122.972 1029.64 123.918C1030.55 124.864 1031.65 125.337 1032.94 125.337ZM1026.25 126.657C1024.46 124.919 1023.57 122.642 1023.57 119.826C1023.57 117.01 1024.47 114.744 1026.28 113.028C1028.08 111.312 1030.32 110.454 1032.98 110.454C1035.66 110.454 1037.91 111.312 1039.71 113.028C1041.51 114.744 1042.42 117.01 1042.42 119.826C1042.42 122.642 1041.5 124.919 1039.68 126.657C1037.87 128.395 1035.63 129.264 1032.94 129.264C1030.26 129.264 1028.03 128.395 1026.25 126.657ZM1053.19 125.106H1055.4V129H1052.47C1050.6 129 1049.15 128.571 1048.14 127.713C1047.13 126.855 1046.62 125.436 1046.62 123.456V114.513H1044.68V110.718H1046.62V106.197H1051.28V110.718H1055.37V114.513H1051.28V123.456C1051.28 124.05 1051.42 124.479 1051.71 124.743C1051.99 124.985 1052.49 125.106 1053.19 125.106ZM1063.67 104.58V113.457C1064.84 111.455 1066.73 110.454 1069.35 110.454C1071.44 110.454 1073.14 111.147 1074.46 112.533C1075.78 113.897 1076.44 115.8 1076.44 118.242V129H1071.82V118.902C1071.82 117.472 1071.46 116.383 1070.73 115.635C1070.01 114.865 1069.02 114.48 1067.76 114.48C1066.51 114.48 1065.51 114.865 1064.76 115.635C1064.03 116.383 1063.67 117.472 1063.67 118.902V129H1059.02V104.58H1063.67ZM1088.95 129.264C1086.28 129.264 1084.12 128.406 1082.44 126.69C1080.77 124.952 1079.94 122.664 1079.94 119.826C1079.94 116.988 1080.77 114.722 1082.44 113.028C1084.14 111.312 1086.32 110.454 1088.98 110.454C1091.66 110.454 1093.86 111.29 1095.58 112.962C1097.29 114.612 1098.15 116.823 1098.15 119.595C1098.15 120.233 1098.11 120.827 1098.02 121.377H1084.69C1084.8 122.565 1085.24 123.522 1086.01 124.248C1086.78 124.974 1087.76 125.337 1088.95 125.337C1090.55 125.337 1091.74 124.677 1092.51 123.357H1097.53C1097 125.095 1095.97 126.514 1094.46 127.614C1092.94 128.714 1091.1 129.264 1088.95 129.264ZM1093.33 118.374C1093.27 117.164 1092.82 116.196 1091.98 115.47C1091.17 114.744 1090.18 114.381 1089.01 114.381C1087.85 114.381 1086.87 114.744 1086.07 115.47C1085.3 116.196 1084.84 117.164 1084.69 118.374H1093.33ZM1106.47 110.718V113.952C1107.7 111.62 1109.48 110.454 1111.81 110.454V115.206H1110.66C1109.27 115.206 1108.23 115.558 1107.52 116.262C1106.82 116.944 1106.47 118.132 1106.47 119.826V129H1101.82V110.718H1106.47ZM421.102 160.065C421.102 160.857 420.827 161.528 420.277 162.078C419.727 162.628 419.056 162.903 418.264 162.903C417.494 162.903 416.834 162.628 416.284 162.078C415.734 161.528 415.459 160.857 415.459 160.065C415.459 159.273 415.734 158.602 416.284 158.052C416.834 157.502 417.494 157.227 418.264 157.227C419.056 157.227 419.727 157.502 420.277 158.052C420.827 158.602 421.102 159.273 421.102 160.065ZM415.954 183V164.718H420.607V183H415.954ZM430.211 164.718V167.457C431.377 165.455 433.269 164.454 435.887 164.454C437.977 164.454 439.682 165.147 441.002 166.533C442.322 167.897 442.982 169.8 442.982 172.242V183H438.362V172.902C438.362 171.472 437.999 170.383 437.273 169.635C436.547 168.865 435.557 168.48 434.303 168.48C433.049 168.48 432.048 168.865 431.3 169.635C430.574 170.383 430.211 171.472 430.211 172.902V183H425.558V164.718H430.211ZM454.857 179.106H457.068V183H454.131C452.261 183 450.82 182.571 449.808 181.713C448.796 180.855 448.29 179.436 448.29 177.456V168.513H446.343V164.718H448.29V160.197H452.943V164.718H457.035V168.513H452.943V177.456C452.943 178.05 453.086 178.479 453.372 178.743C453.658 178.985 454.153 179.106 454.857 179.106ZM468.406 183.264C465.744 183.264 463.577 182.406 461.905 180.69C460.233 178.952 459.397 176.664 459.397 173.826C459.397 170.988 460.233 168.722 461.905 167.028C463.599 165.312 465.777 164.454 468.439 164.454C471.123 164.454 473.323 165.29 475.039 166.962C476.755 168.612 477.613 170.823 477.613 173.595C477.613 174.233 477.569 174.827 477.481 175.377H464.149C464.259 176.565 464.699 177.522 465.469 178.248C466.239 178.974 467.218 179.337 468.406 179.337C470.012 179.337 471.2 178.677 471.97 177.357H476.986C476.458 179.095 475.435 180.514 473.917 181.614C472.399 182.714 470.562 183.264 468.406 183.264ZM472.795 172.374C472.729 171.164 472.278 170.196 471.442 169.47C470.628 168.744 469.638 168.381 468.472 168.381C467.306 168.381 466.327 168.744 465.535 169.47C464.765 170.196 464.303 171.164 464.149 172.374H472.795ZM485.93 164.718V167.952C487.162 165.62 488.944 164.454 491.276 164.454V169.206H490.121C488.735 169.206 487.69 169.558 486.986 170.262C486.282 170.944 485.93 172.132 485.93 173.826V183H481.277V164.718H485.93ZM502.309 183.264C499.647 183.264 497.48 182.406 495.808 180.69C494.136 178.952 493.3 176.664 493.3 173.826C493.3 170.988 494.136 168.722 495.808 167.028C497.502 165.312 499.68 164.454 502.342 164.454C505.026 164.454 507.226 165.29 508.942 166.962C510.658 168.612 511.516 170.823 511.516 173.595C511.516 174.233 511.472 174.827 511.384 175.377H498.052C498.162 176.565 498.602 177.522 499.372 178.248C500.142 178.974 501.121 179.337 502.309 179.337C503.915 179.337 505.103 178.677 505.873 177.357H510.889C510.361 179.095 509.338 180.514 507.82 181.614C506.302 182.714 504.465 183.264 502.309 183.264ZM506.698 172.374C506.632 171.164 506.181 170.196 505.345 169.47C504.531 168.744 503.541 168.381 502.375 168.381C501.209 168.381 500.23 168.744 499.438 169.47C498.668 170.196 498.206 171.164 498.052 172.374H506.698ZM514.157 170.064C514.157 168.48 514.828 167.149 516.17 166.071C517.512 164.993 519.294 164.454 521.516 164.454C523.738 164.454 525.52 164.993 526.862 166.071C528.204 167.127 528.919 168.568 529.007 170.394H524.255C524.123 168.854 523.177 168.084 521.417 168.084C520.537 168.084 519.855 168.26 519.371 168.612C518.887 168.964 518.645 169.448 518.645 170.064C518.645 170.68 519.008 171.164 519.734 171.516C520.46 171.868 521.34 172.143 522.374 172.341C523.408 172.539 524.431 172.792 525.443 173.1C526.477 173.386 527.357 173.914 528.083 174.684C528.809 175.432 529.172 176.433 529.172 177.687C529.172 179.337 528.468 180.679 527.06 181.713C525.674 182.747 523.892 183.264 521.714 183.264C519.558 183.264 517.787 182.758 516.401 181.746C515.015 180.712 514.256 179.238 514.124 177.324H518.876C519.052 178.864 520.031 179.634 521.813 179.634C522.671 179.634 523.364 179.447 523.892 179.073C524.42 178.677 524.684 178.171 524.684 177.555C524.684 176.917 524.321 176.422 523.595 176.07C522.869 175.696 521.989 175.41 520.955 175.212C519.921 175.014 518.887 174.772 517.853 174.486C516.841 174.2 515.972 173.694 515.246 172.968C514.52 172.22 514.157 171.252 514.157 170.064ZM540.225 179.106H542.436V183H539.499C537.629 183 536.188 182.571 535.176 181.713C534.164 180.855 533.658 179.436 533.658 177.456V168.513H531.711V164.718H533.658V160.197H538.311V164.718H542.403V168.513H538.311V177.456C538.311 178.05 538.454 178.479 538.74 178.743C539.026 178.985 539.521 179.106 540.225 179.106ZM551.201 160.065C551.201 160.857 550.926 161.528 550.376 162.078C549.826 162.628 549.155 162.903 548.363 162.903C547.593 162.903 546.933 162.628 546.383 162.078C545.833 161.528 545.558 160.857 545.558 160.065C545.558 159.273 545.833 158.602 546.383 158.052C546.933 157.502 547.593 157.227 548.363 157.227C549.155 157.227 549.826 157.502 550.376 158.052C550.926 158.602 551.201 159.273 551.201 160.065ZM546.053 183V164.718H550.706V183H546.053ZM560.309 164.718V167.457C561.475 165.455 563.367 164.454 565.985 164.454C568.075 164.454 569.78 165.147 571.1 166.533C572.42 167.897 573.08 169.8 573.08 172.242V183H568.46V172.902C568.46 171.472 568.097 170.383 567.371 169.635C566.645 168.865 565.655 168.48 564.401 168.48C563.147 168.48 562.146 168.865 561.398 169.635C560.672 170.383 560.309 171.472 560.309 172.902V183H555.656V164.718H560.309ZM579.015 180.624C577.387 178.842 576.573 176.576 576.573 173.826C576.573 171.076 577.387 168.832 579.015 167.094C580.643 165.334 582.711 164.454 585.219 164.454C587.727 164.454 589.641 165.488 590.961 167.556V164.718H595.581V183.132C595.581 185.75 594.811 187.884 593.271 189.534C591.731 191.206 589.564 192.042 586.77 192.042C583.998 192.042 581.787 191.459 580.137 190.293C578.509 189.149 577.585 187.51 577.365 185.376H581.919C582.205 186.19 582.755 186.828 583.569 187.29C584.383 187.774 585.406 188.016 586.638 188.016C587.87 188.016 588.893 187.609 589.707 186.795C590.543 185.981 590.961 184.76 590.961 183.132V179.931C589.575 182.153 587.65 183.264 585.186 183.264C582.722 183.264 580.665 182.384 579.015 180.624ZM589.509 177.819C590.477 176.851 590.961 175.531 590.961 173.859C590.961 172.187 590.477 170.878 589.509 169.932C588.541 168.964 587.408 168.48 586.11 168.48C584.812 168.48 583.679 168.953 582.711 169.899C581.765 170.845 581.292 172.154 581.292 173.826C581.292 175.498 581.776 176.818 582.744 177.786C583.712 178.754 584.834 179.238 586.11 179.238C587.408 179.238 588.541 178.765 589.509 177.819ZM618.527 179.337C619.825 179.337 620.936 178.864 621.86 177.918C622.806 176.95 623.279 175.597 623.279 173.859C623.279 172.099 622.817 170.746 621.893 169.8C620.969 168.854 619.847 168.381 618.527 168.381C617.229 168.381 616.129 168.854 615.227 169.8C614.325 170.746 613.874 172.099 613.874 173.859C613.874 175.619 614.325 176.972 615.227 177.918C616.129 178.864 617.229 179.337 618.527 179.337ZM611.828 180.657C610.046 178.919 609.155 176.642 609.155 173.826C609.155 171.01 610.057 168.744 611.861 167.028C613.665 165.312 615.898 164.454 618.56 164.454C621.244 164.454 623.488 165.312 625.292 167.028C627.096 168.744 627.998 171.01 627.998 173.826C627.998 176.642 627.085 178.919 625.259 180.657C623.455 182.395 621.211 183.264 618.527 183.264C615.843 183.264 613.61 182.395 611.828 180.657ZM639.5 164.718V168.513H636.596V183H631.976V168.513H629.996V164.718H631.976V163.695C631.976 161.495 632.559 159.889 633.725 158.877C634.891 157.865 636.728 157.359 639.236 157.359V161.253C638.268 161.253 637.586 161.44 637.19 161.814C636.794 162.188 636.596 162.815 636.596 163.695V164.718H639.5ZM650.521 164.718V168.513H647.617V183H642.997V168.513H641.017V164.718H642.997V163.695C642.997 161.495 643.58 159.889 644.746 158.877C645.912 157.865 647.749 157.359 650.257 157.359V161.253C649.289 161.253 648.607 161.44 648.211 161.814C647.815 162.188 647.617 162.815 647.617 163.695V164.718H650.521ZM661.444 183.264C658.782 183.264 656.615 182.406 654.943 180.69C653.271 178.952 652.435 176.664 652.435 173.826C652.435 170.988 653.271 168.722 654.943 167.028C656.637 165.312 658.815 164.454 661.477 164.454C664.161 164.454 666.361 165.29 668.077 166.962C669.793 168.612 670.651 170.823 670.651 173.595C670.651 174.233 670.607 174.827 670.519 175.377H657.187C657.297 176.565 657.737 177.522 658.507 178.248C659.277 178.974 660.256 179.337 661.444 179.337C663.05 179.337 664.238 178.677 665.008 177.357H670.024C669.496 179.095 668.473 180.514 666.955 181.614C665.437 182.714 663.6 183.264 661.444 183.264ZM665.833 172.374C665.767 171.164 665.316 170.196 664.48 169.47C663.666 168.744 662.676 168.381 661.51 168.381C660.344 168.381 659.365 168.744 658.573 169.47C657.803 170.196 657.341 171.164 657.187 172.374H665.833ZM678.967 164.718V167.952C680.199 165.62 681.981 164.454 684.313 164.454V169.206H683.158C681.772 169.206 680.727 169.558 680.023 170.262C679.319 170.944 678.967 172.132 678.967 173.826V183H674.314V164.718H678.967ZM686.601 170.064C686.601 168.48 687.272 167.149 688.614 166.071C689.956 164.993 691.738 164.454 693.96 164.454C696.182 164.454 697.964 164.993 699.306 166.071C700.648 167.127 701.363 168.568 701.451 170.394H696.699C696.567 168.854 695.621 168.084 693.861 168.084C692.981 168.084 692.299 168.26 691.815 168.612C691.331 168.964 691.089 169.448 691.089 170.064C691.089 170.68 691.452 171.164 692.178 171.516C692.904 171.868 693.784 172.143 694.818 172.341C695.852 172.539 696.875 172.792 697.887 173.1C698.921 173.386 699.801 173.914 700.527 174.684C701.253 175.432 701.616 176.433 701.616 177.687C701.616 179.337 700.912 180.679 699.504 181.713C698.118 182.747 696.336 183.264 694.158 183.264C692.002 183.264 690.231 182.758 688.845 181.746C687.459 180.712 686.7 179.238 686.568 177.324H691.32C691.496 178.864 692.475 179.634 694.257 179.634C695.115 179.634 695.808 179.447 696.336 179.073C696.864 178.677 697.128 178.171 697.128 177.555C697.128 176.917 696.765 176.422 696.039 176.07C695.313 175.696 694.433 175.41 693.399 175.212C692.365 175.014 691.331 174.772 690.297 174.486C689.285 174.2 688.416 173.694 687.69 172.968C686.964 172.22 686.601 171.252 686.601 170.064ZM727.117 177.819C728.085 176.851 728.569 175.531 728.569 173.859C728.569 172.187 728.085 170.878 727.117 169.932C726.149 168.964 725.016 168.48 723.718 168.48C722.42 168.48 721.287 168.953 720.319 169.899C719.373 170.845 718.9 172.154 718.9 173.826C718.9 175.498 719.384 176.818 720.352 177.786C721.32 178.754 722.442 179.238 723.718 179.238C725.016 179.238 726.149 178.765 727.117 177.819ZM716.623 180.624C714.995 178.842 714.181 176.576 714.181 173.826C714.181 171.076 714.995 168.832 716.623 167.094C718.251 165.334 720.319 164.454 722.827 164.454C725.335 164.454 727.249 165.488 728.569 167.556V164.718H733.189V183H728.569V179.931C727.183 182.153 725.258 183.264 722.794 183.264C720.33 183.264 718.273 182.384 716.623 180.624ZM750.96 177.786C751.928 176.818 752.412 175.498 752.412 173.826C752.412 172.154 751.928 170.845 750.96 169.899C750.014 168.953 748.892 168.48 747.594 168.48C746.296 168.48 745.163 168.964 744.195 169.932C743.249 170.878 742.776 172.187 742.776 173.859C742.776 175.531 743.249 176.851 744.195 177.819C745.163 178.765 746.296 179.238 747.594 179.238C748.892 179.238 750.014 178.754 750.96 177.786ZM742.776 167.556C744.074 165.488 745.977 164.454 748.485 164.454C750.993 164.454 753.061 165.334 754.689 167.094C756.317 168.832 757.131 171.087 757.131 173.859C757.131 176.609 756.317 178.864 754.689 180.624C753.061 182.384 751.004 183.264 748.518 183.264C746.054 183.264 744.14 182.153 742.776 179.931V183H738.123V158.58H742.776V167.556ZM768.896 179.337C770.194 179.337 771.305 178.864 772.229 177.918C773.175 176.95 773.648 175.597 773.648 173.859C773.648 172.099 773.186 170.746 772.262 169.8C771.338 168.854 770.216 168.381 768.896 168.381C767.598 168.381 766.498 168.854 765.596 169.8C764.694 170.746 764.243 172.099 764.243 173.859C764.243 175.619 764.694 176.972 765.596 177.918C766.498 178.864 767.598 179.337 768.896 179.337ZM762.197 180.657C760.415 178.919 759.524 176.642 759.524 173.826C759.524 171.01 760.426 168.744 762.23 167.028C764.034 165.312 766.267 164.454 768.929 164.454C771.613 164.454 773.857 165.312 775.661 167.028C777.465 168.744 778.367 171.01 778.367 173.826C778.367 176.642 777.454 178.919 775.628 180.657C773.824 182.395 771.58 183.264 768.896 183.264C766.212 183.264 763.979 182.395 762.197 180.657ZM794.654 164.718H799.307V183H794.654V180.228C793.488 182.23 791.585 183.231 788.945 183.231C786.877 183.231 785.183 182.549 783.863 181.185C782.543 179.799 781.883 177.885 781.883 175.443V164.718H786.503V174.783C786.503 176.213 786.866 177.313 787.592 178.083C788.318 178.853 789.308 179.238 790.562 179.238C791.816 179.238 792.806 178.853 793.532 178.083C794.28 177.313 794.654 176.213 794.654 174.783V164.718ZM811.347 179.106H813.558V183H810.621C808.751 183 807.31 182.571 806.298 181.713C805.286 180.855 804.78 179.436 804.78 177.456V168.513H802.833V164.718H804.78V160.197H809.433V164.718H813.525V168.513H809.433V177.456C809.433 178.05 809.576 178.479 809.862 178.743C810.148 178.985 810.643 179.106 811.347 179.106ZM835.549 176.136V159.966H840.169V176.136C840.169 178.358 839.498 180.096 838.156 181.35C836.836 182.604 835.12 183.231 833.008 183.231C830.896 183.231 829.169 182.604 827.827 181.35C826.485 180.096 825.814 178.358 825.814 176.136H830.467C830.489 177.082 830.72 177.819 831.16 178.347C831.6 178.853 832.216 179.106 833.008 179.106C833.8 179.106 834.416 178.853 834.856 178.347C835.318 177.819 835.549 177.082 835.549 176.136ZM857.795 177.819C858.763 176.851 859.247 175.531 859.247 173.859C859.247 172.187 858.763 170.878 857.795 169.932C856.827 168.964 855.694 168.48 854.396 168.48C853.098 168.48 851.965 168.953 850.997 169.899C850.051 170.845 849.578 172.154 849.578 173.826C849.578 175.498 850.062 176.818 851.03 177.786C851.998 178.754 853.12 179.238 854.396 179.238C855.694 179.238 856.827 178.765 857.795 177.819ZM847.301 180.624C845.673 178.842 844.859 176.576 844.859 173.826C844.859 171.076 845.673 168.832 847.301 167.094C848.929 165.334 850.997 164.454 853.505 164.454C856.013 164.454 857.927 165.488 859.247 167.556V164.718H863.867V183H859.247V179.931C857.861 182.153 855.936 183.264 853.472 183.264C851.008 183.264 848.951 182.384 847.301 180.624ZM880.451 177.819C881.419 176.851 881.903 175.531 881.903 173.859C881.903 172.187 881.419 170.878 880.451 169.932C879.483 168.964 878.35 168.48 877.052 168.48C875.754 168.48 874.621 168.953 873.653 169.899C872.707 170.845 872.234 172.154 872.234 173.826C872.234 175.498 872.718 176.818 873.686 177.786C874.654 178.754 875.776 179.238 877.052 179.238C878.35 179.238 879.483 178.765 880.451 177.819ZM869.957 180.624C868.329 178.842 867.515 176.576 867.515 173.826C867.515 171.076 868.329 168.832 869.957 167.094C871.585 165.334 873.653 164.454 876.161 164.454C878.669 164.454 880.583 165.488 881.903 167.556V158.58H886.523V183H881.903V179.931C880.517 182.153 878.592 183.264 876.128 183.264C873.664 183.264 871.607 182.384 869.957 180.624ZM899.575 179.337C900.873 179.337 901.984 178.864 902.908 177.918C903.854 176.95 904.327 175.597 904.327 173.859C904.327 172.099 903.865 170.746 902.941 169.8C902.017 168.854 900.895 168.381 899.575 168.381C898.277 168.381 897.177 168.854 896.275 169.8C895.373 170.746 894.922 172.099 894.922 173.859C894.922 175.619 895.373 176.972 896.275 177.918C897.177 178.864 898.277 179.337 899.575 179.337ZM892.876 180.657C891.094 178.919 890.203 176.642 890.203 173.826C890.203 171.01 891.105 168.744 892.909 167.028C894.713 165.312 896.946 164.454 899.608 164.454C902.292 164.454 904.536 165.312 906.34 167.028C908.144 168.744 909.046 171.01 909.046 173.826C909.046 176.642 908.133 178.919 906.307 180.657C904.503 182.395 902.259 183.264 899.575 183.264C896.891 183.264 894.658 182.395 892.876 180.657ZM920.844 179.337C922.142 179.337 923.253 178.864 924.177 177.918C925.123 176.95 925.596 175.597 925.596 173.859C925.596 172.099 925.134 170.746 924.21 169.8C923.286 168.854 922.164 168.381 920.844 168.381C919.546 168.381 918.446 168.854 917.544 169.8C916.642 170.746 916.191 172.099 916.191 173.859C916.191 175.619 916.642 176.972 917.544 177.918C918.446 178.864 919.546 179.337 920.844 179.337ZM914.145 180.657C912.363 178.919 911.472 176.642 911.472 173.826C911.472 171.01 912.374 168.744 914.178 167.028C915.982 165.312 918.215 164.454 920.877 164.454C923.561 164.454 925.805 165.312 927.609 167.028C929.413 168.744 930.315 171.01 930.315 173.826C930.315 176.642 929.402 178.919 927.576 180.657C925.772 182.395 923.528 183.264 920.844 183.264C918.16 183.264 915.927 182.395 914.145 180.657Z" fill="#5E6282"/>
<circle cx="1242" cy="35" r="35" fill="url(#paint3_linear_1_440)"/>
<path d="M1259.61 23.9904C1260.3 25.1878 1260.21 26.6136 1259.37 27.711L1240.89 51.8182C1240.13 52.8123 1238.88 53.3191 1237.59 53.0729C1236.34 52.8313 1235.34 51.9156 1235 50.6841L1232.26 40.9555L1231.98 39.9435L1231.24 39.191L1224.19 31.9595C1223.29 31.0444 1223 29.724 1223.42 28.5154C1223.83 27.3206 1224.87 26.4536 1226.15 26.2856L1256.27 22.3404C1257.64 22.1604 1258.92 22.793 1259.61 23.9904Z" fill="white"/>
<path d="M1232.26 40.9555L1235 50.6841C1235.34 51.9157 1236.34 52.8313 1237.59 53.0729C1238.88 53.3192 1240.13 52.8124 1240.89 51.8182L1259.37 27.7111C1260.21 26.6137 1260.3 25.1879 1259.61 23.9905L1231.98 39.9436L1232.26 40.9555Z" fill="white"/>
<path d="M1243.22 33.4515C1243.5 33.9385 1243.34 34.5616 1242.85 34.8431L1232.26 40.9553L1231.98 39.9434L1231.24 39.1909L1241.83 33.0787C1242.32 32.7973 1242.94 32.9646 1243.22 33.4515Z" fill="url(#paint4_linear_1_440)"/>
<path d="M1232.26 40.9554L1242.85 34.8432C1243.34 34.5617 1243.5 33.9387 1243.22 33.4517L1231.98 39.9435L1232.26 40.9554Z" fill="url(#paint5_linear_1_440)"/>
<defs>
<linearGradient id="paint0_linear_1_440" x1="1180.24" y1="22.8623" x2="998.232" y2="367.287" gradientUnits="userSpaceOnUse">
<stop stop-color="#747DEF"/>
<stop offset="1" stop-color="#5E3BE1"/>
</linearGradient>
<linearGradient id="paint1_linear_1_440" x1="736.035" y1="72.4669" x2="487.704" y2="543.066" gradientUnits="userSpaceOnUse">
<stop stop-color="#747DEF"/>
<stop offset="1" stop-color="#5E3BE1"/>
</linearGradient>
<linearGradient id="paint2_linear_1_440" x1="874" y1="274" x2="874" y2="342" gradientUnits="userSpaceOnUse">
<stop stop-color="#FF946D"/>
<stop offset="1" stop-color="#FF7D68"/>
</linearGradient>
<linearGradient id="paint3_linear_1_440" x1="1256.65" y1="1.96393" x2="1226.56" y2="77.7643" gradientUnits="userSpaceOnUse">
<stop stop-color="#747DEF"/>
<stop offset="1" stop-color="#5E3BE1"/>
</linearGradient>
<linearGradient id="paint4_linear_1_440" x1="1239.41" y1="34.5441" x2="1240.55" y2="36.8251" gradientUnits="userSpaceOnUse">
<stop stop-color="#747DEF"/>
<stop offset="1" stop-color="#5E3BE1"/>
</linearGradient>
<linearGradient id="paint5_linear_1_440" x1="1239.9" y1="35.4017" x2="1240.51" y2="36.5259" gradientUnits="userSpaceOnUse">
<stop stop-color="#747DEF"/>
<stop offset="1" stop-color="#5E3BE1"/>
</linearGradient>
</defs>
</svg>
